<svg width="18" height="18" viewBox="0 0 18 18" fill="none" xmlns="http://www.w3.org/2000/svg">
<g clip-path="url(#clip0_193_48)">
<path d="M3.125 15.6188H3.95L12.2563 7.3125L11.4313 6.4875L3.125 14.7938V15.6188ZM14.6375 6.50625L12.2375 4.10625L13.025 3.31875C13.2375 3.10625 13.5 3 13.8125 3C14.125 3 14.3875 3.10625 14.6 3.31875L15.425 4.14375C15.6375 4.35625 15.7438 4.61875 15.7438 4.93125C15.7438 5.24375 15.6375 5.50625 15.425 5.71875L14.6375 6.50625ZM13.85 7.29375L4.4 16.7438H2V14.3438L11.45 4.89375L13.85 7.29375ZM11.8438 6.9L11.4313 6.4875L12.2563 7.3125L11.8438 6.9Z" fill="#D4D4D4"/>
</g>
<defs>
<clipPath id="clip0_193_48">
<rect width="18" height="18" fill="white"/>
</clipPath>
</defs>
</svg>
