<svg width="53" height="65" viewBox="0 0 53 65" fill="none" xmlns="http://www.w3.org/2000/svg">
<path d="M26.7699 63.9625C26.7198 63.7857 26.7069 62.6494 26.7412 61.4374C26.7756 60.2254 26.8157 56.9108 26.8303 54.0718L26.8569 48.9099L27.5714 48.6959C27.9643 48.5781 28.4468 48.2772 28.6435 48.0271C28.8402 47.777 29.0865 47.5724 29.1909 47.5724C29.5017 47.5724 30.1419 46.6373 30.1419 46.1833C30.1419 45.9073 30.5272 45.3935 31.2594 44.6931C31.8739 44.1051 32.4387 43.6011 32.5144 43.573C32.5901 43.545 32.7543 44.0821 32.8792 44.7667C33.0895 45.9192 33.0781 46.0654 32.726 46.7389C32.5168 47.1391 32.3457 47.566 32.3457 47.6878C32.3457 47.8095 32.2743 47.9366 32.1871 47.9703C31.9988 48.043 29.1022 53.7835 28.7457 54.7905C28.5683 55.2916 28.4937 56.667 28.4819 59.6525C28.4714 62.2853 28.394 63.9018 28.2712 64.0498C27.9708 64.4117 26.8794 64.3482 26.7699 63.9625ZM24.6189 59.8764C24.5424 56.7477 24.4367 55.3311 24.2348 54.7254C24.0816 54.2659 23.0665 52.1586 21.9791 50.0425C20.5865 47.3326 20.0063 46.0168 20.0165 45.5918C20.036 44.7796 20.3932 43.4946 20.5796 43.5663C20.6623 43.5981 21.2361 44.0949 21.8549 44.6704C22.7583 45.5106 22.9799 45.827 22.9799 46.2772C22.9799 46.8726 23.5257 47.5724 23.9899 47.5724C24.1414 47.5724 24.2654 47.6945 24.2654 47.8437C24.2654 48.2112 24.9394 48.6192 25.8093 48.7784L26.5268 48.9096L26.4168 56.4133C26.3563 60.5404 26.253 64.0041 26.1873 64.1105C26.1215 64.2169 25.7655 64.2788 25.3961 64.248L24.7245 64.192L24.6189 59.8764ZM28.8372 63.4116C28.9983 63.1197 32.0521 59.418 34.1605 56.9592C34.6269 56.4152 35.0798 55.8481 35.1669 55.6989C35.2541 55.5497 35.4813 55.2716 35.6719 55.081C36.0116 54.7414 36.0185 54.7456 36.0185 55.2913C36.0185 56.454 35.4742 57.1932 32.203 60.4733C29.147 63.5375 28.4152 64.1764 28.8372 63.4116ZM20.7665 60.4479C17.9614 57.6149 17.471 57.0341 17.2028 56.2266C16.8642 55.2071 16.8907 54.2573 17.2342 55.1017C17.3368 55.3543 17.4614 55.5195 17.5108 55.469C17.5602 55.4185 17.8395 55.6664 18.1314 56.0199C18.4232 56.3735 18.7452 56.7545 18.8468 56.8667C18.9485 56.979 19.2795 57.3883 19.5825 57.7763C19.8855 58.1643 20.7946 59.2614 21.6026 60.2143C23.128 62.0131 24.2654 63.4758 24.2654 63.6387C24.2654 63.9283 23.7223 63.4331 20.7665 60.4479ZM29.1162 55.2328C29.2638 54.5963 29.672 53.5671 30.0233 52.9456C30.3745 52.3241 30.7214 51.6253 30.794 51.3927C30.8666 51.1601 30.9781 50.9285 31.0418 50.878C31.2531 50.7104 32.3457 48.4897 32.3457 48.2278C32.3457 48.0862 32.4313 47.9418 32.5359 47.9069C32.6406 47.872 32.8358 47.5245 32.9699 47.1346L33.2136 46.4257L33.8105 48.3305C34.1388 49.3781 34.7759 51.0421 35.2263 52.0284L36.0452 53.8215L35.6213 54.5075C35.3881 54.8848 35.0128 55.3589 34.7871 55.5609C34.5615 55.7629 33.9405 56.4737 33.4072 57.1406C32.1467 58.7166 29.3785 62.1128 29.1366 62.3799C28.8134 62.7367 28.7959 56.6137 29.1162 55.2328ZM22.739 61.0137C21.5396 59.4831 20.2624 57.913 19.4252 56.9398C18.0719 55.367 17.1053 54.0483 17.1044 53.7739C17.1038 53.5991 17.4482 52.7314 17.8697 51.8456C18.2913 50.9599 18.8948 49.4176 19.2111 48.4183L19.786 46.6013L21.8521 50.7138C23.4041 53.8029 23.9612 55.1005 24.0908 55.9281C24.2958 57.2376 24.3255 62.6356 24.1277 62.6206C24.0519 62.6151 23.427 61.8918 22.739 61.0137ZM24.9926 48.1194C24.2535 47.7238 24.6622 47.5724 26.4691 47.5724C28.2366 47.5724 28.5692 47.6782 28.076 48.0833C27.5668 48.5014 25.7463 48.5227 24.9926 48.1194ZM23.5267 46.8378C23.1947 46.3119 23.3407 46.1249 24.1277 46.0679C24.8305 46.0171 24.914 45.9601 24.9673 45.4953C24.9999 45.2115 24.9261 44.8583 24.8034 44.7104C24.4505 44.2851 24.7768 44.1643 25.3553 44.5061C26.0206 44.899 27.1774 44.9076 27.7256 44.5236C28.232 44.1689 28.4681 44.3317 28.1609 44.8237C27.6936 45.5718 28.0938 46.1704 29.0433 46.1434C29.7475 46.1234 29.8793 46.3659 29.416 46.8292C29.0719 47.1733 28.843 47.198 26.3722 47.1573C24.2315 47.122 23.666 47.0586 23.5267 46.8378ZM28.4163 45.583C28.28 45.3626 28.9089 44.0963 29.1582 44.0892C29.4237 44.0815 29.591 44.5112 29.591 45.2001C29.591 45.6707 29.5252 45.736 29.0509 45.736C28.7539 45.736 28.4683 45.6672 28.4163 45.583ZM23.4265 45.3228C23.4689 45.0955 23.5097 44.7237 23.5172 44.4964C23.535 43.9565 23.9055 44.0443 24.3104 44.6845C24.8094 45.4732 24.7296 45.736 23.9911 45.736C23.4253 45.736 23.3586 45.6871 23.4265 45.3228ZM29.9133 44.542C29.865 44.2892 30.0676 43.2769 30.3635 42.2923C30.7442 41.0255 30.9015 40.113 30.9016 39.1708L30.9017 37.8394H31.4296C32.0251 37.8394 32.5293 37.2733 32.5293 36.6049C32.5293 36.2769 32.6324 36.1866 33.0064 36.1866H33.4835L33.4193 38.6199C33.3639 40.716 33.2958 41.1735 32.9275 41.9218C32.4602 42.8715 30.5938 45.0014 30.229 45.0014C30.1037 45.0014 29.9616 44.7947 29.9133 44.542ZM21.9255 44.221C20.6845 42.9468 20.6266 42.8741 20.1875 42.0385C19.8191 41.3374 19.7587 40.9197 19.7064 38.7117L19.6466 36.1866H20.1195C20.5169 36.1866 20.5925 36.2701 20.5925 36.7091C20.5925 37.3126 21.0354 37.7786 21.6944 37.8686C22.1305 37.9281 22.1504 37.9826 22.0926 38.9567C22.0502 39.6697 22.1821 40.5091 22.5254 41.7113C23.1341 43.8432 23.2341 44.369 23.098 44.7237C22.9353 45.1475 22.7511 45.0685 21.9255 44.221ZM26.8364 41.888V39.5091L28.2068 38.0797C29.2733 36.9673 29.6261 36.6992 29.7978 36.8708C30.2113 37.2844 30.0693 38.0594 28.7368 42.66C28.483 43.5364 28.3617 43.7159 28.0235 43.7159C27.7993 43.7159 27.5131 43.8399 27.3873 43.9914C27.2616 44.1429 27.0862 44.2669 26.9975 44.2669C26.9089 44.2669 26.8364 43.1964 26.8364 41.888ZM25.56 44.0024C25.4393 43.857 25.1639 43.7124 24.948 43.681C24.6116 43.6323 24.4551 43.2696 23.8532 41.1449C23.0523 38.3171 22.8851 37.314 23.1495 36.9212C23.302 36.6945 23.55 36.8573 24.5485 37.8394C25.2159 38.4959 25.8798 39.2562 26.0238 39.529C26.3921 40.2269 26.3995 44.2669 26.0325 44.2669C25.8934 44.2669 25.6808 44.1479 25.56 44.0024ZM29.3281 42.1091C29.5481 41.2253 29.8758 40.0064 30.0564 39.4003C30.3711 38.3442 30.3908 38.3209 30.532 38.8374C30.786 39.767 29.7276 43.7159 29.2244 43.7159C28.9597 43.7159 28.9707 43.5448 29.3281 42.1091ZM23.0285 42.155C22.5176 40.5249 22.2729 38.3903 22.597 38.3903C22.7066 38.3903 22.7963 38.4979 22.7963 38.6295C22.7963 38.761 23.0855 39.893 23.439 41.1449C24.1792 43.7664 24.1787 43.7623 23.7853 43.6835C23.5933 43.645 23.3267 43.1067 23.0285 42.155ZM23.8903 35.3363C24.2086 34.7469 24.2696 34.3343 24.2475 32.9186C24.2329 31.9797 24.2539 31.1786 24.2941 31.1384C24.3343 31.0982 25.3566 31.0503 26.5659 31.0321L28.7646 30.999L28.8565 33.1249C28.9145 34.4676 29.0328 35.3352 29.1778 35.48C29.3041 35.6061 29.4074 35.8042 29.4074 35.9203C29.4074 36.0363 28.7669 36.7956 27.9842 37.6074L26.5609 39.0835L25.0338 37.5652L23.5066 36.047L23.8903 35.3363ZM35.8668 37.1038C35.6065 36.887 35.493 36.6561 35.5763 36.5131C35.9543 35.8647 38.3431 32.7587 38.6201 32.5556C38.7954 32.4271 39.0478 32.2129 39.1811 32.0796C39.3144 31.9463 39.5989 31.7433 39.8134 31.6285C40.3276 31.3533 43.0542 30.4897 43.1395 30.5751C43.2174 30.653 43.2019 30.6819 41.61 33.432C40.9377 34.5935 40.1689 35.7785 39.9017 36.0653C38.7597 37.2909 36.7209 37.8157 35.8668 37.1038ZM30.8898 37.3344C30.8971 37.2587 31.1863 36.9612 31.5325 36.6735C32.0326 36.258 32.162 36.2133 32.162 36.4561C32.162 37.0195 31.791 37.4721 31.3292 37.4721C31.0802 37.4721 30.8825 37.4101 30.8898 37.3344ZM21.1802 37.2517C20.9317 37.0032 20.8806 36.3703 21.1091 36.3703C21.1912 36.3703 21.4959 36.6182 21.7862 36.9212L22.3141 37.4721H21.8573C21.6061 37.4721 21.3014 37.373 21.1802 37.2517ZM14.8308 37.153C13.8861 36.8144 12.7769 35.8461 12.3273 34.9673C12.1794 34.6784 11.9232 34.2354 11.7579 33.9829C11.226 33.1704 10.4204 31.6878 10.5035 31.6743C10.5478 31.6666 10.4394 31.5165 10.2627 31.3398C10.0859 31.163 9.94131 30.9084 9.94131 30.774C9.94131 30.507 10.3722 30.607 12.6041 31.3915C13.984 31.8766 14.8644 32.7604 16.873 35.6772C17.5816 36.7061 17.595 36.8132 17.0625 37.1862C16.5325 37.5575 15.9344 37.5486 14.8308 37.153ZM34.2258 36.9786C34.4014 36.9326 34.732 36.931 34.9604 36.9754C35.1889 37.0193 35.0452 37.0569 34.6412 37.059C34.2372 37.0611 34.0503 37.0251 34.2258 36.9791V36.9786ZM29.9724 36.1222L29.5509 35.3027L30.1514 34.6428C30.8664 33.8571 31.4098 33.8007 32.6162 34.3868C33.2268 34.6834 33.4475 34.8976 33.4475 35.1935C33.4475 35.6377 33.1309 35.8193 32.3564 35.8193C32.0176 35.8193 31.6396 36.0307 31.2307 36.4489C30.8922 36.7952 30.5654 37.0477 30.5045 37.0101C30.4437 36.9725 30.2042 36.5729 29.9724 36.1222ZM20.6071 35.8193C19.758 35.8193 19.5354 35.6685 19.6327 35.1594C19.7346 34.6263 20.846 33.9791 21.6412 33.9898C21.9459 33.9942 22.4312 34.2357 22.839 34.5866L23.5244 35.1766L23.0564 36.1511L22.5884 37.1257L21.8654 36.4725C21.3853 36.0387 20.9626 35.8193 20.6071 35.8193ZM18.1558 36.9844C18.2801 36.9341 18.5281 36.931 18.7067 36.9778C18.8854 37.0244 18.7837 37.0656 18.4807 37.0693C18.1777 37.0726 18.0315 37.0349 18.1558 36.9846V36.9844ZM34.733 34.8797V33.2056L36.0207 31.9482C37.548 30.4568 38.0617 30.2657 40.3328 30.3446L41.9842 30.4019L40.4966 30.9183C39.4085 31.2961 38.8365 31.6167 38.3671 32.112C37.6489 32.8697 35.2839 36.1579 35.2839 36.3988C35.2839 36.484 35.16 36.5539 35.0085 36.5539C34.7838 36.5539 34.733 36.2454 34.733 34.8797ZM16.4384 34.3945C14.5471 31.7845 14.1138 31.4164 12.145 30.7459L11.135 30.4019L12.9218 30.3494C15.0773 30.2861 15.3918 30.4172 17.1493 32.1127L18.3889 33.3086V34.8088C18.3889 36.2694 18.3045 36.637 18.0109 36.4555C17.9322 36.4068 17.2246 35.4794 16.4384 34.3945ZM33.8148 34.9929C33.8148 34.1971 33.8923 33.6156 33.9984 33.6156C34.1045 33.6156 34.1821 34.1971 34.1821 34.9929C34.1821 35.7887 34.1045 36.3703 33.9984 36.3703C33.8923 36.3703 33.8148 35.7887 33.8148 34.9929ZM18.7561 34.9929C18.7561 34.1971 18.8337 33.6156 18.9398 33.6156C19.0458 33.6156 19.1234 34.1971 19.1234 34.9929C19.1234 35.7887 19.0458 36.3703 18.9398 36.3703C18.8337 36.3703 18.7561 35.7887 18.7561 34.9929ZM29.2237 32.508C29.2237 30.7712 29.2794 30.2772 29.4839 30.1987C29.7304 30.1041 32.4394 31.528 33.1261 32.1132C33.4796 32.4144 33.5966 34.1665 33.2632 34.1665C33.1618 34.1665 32.7705 34.0013 32.3936 33.7993C31.394 33.2635 30.8656 33.3281 30.142 34.0747C29.7993 34.4282 29.4526 34.7175 29.3714 34.7175C29.2902 34.7175 29.2237 33.7232 29.2237 32.508ZM22.8757 34.0747C22.1618 33.3815 21.4878 33.2502 20.863 33.6827C20.6637 33.8206 20.3148 33.9914 20.0876 34.0624C19.6959 34.1846 19.6744 34.142 19.6744 33.2476C19.6744 32.2415 19.8144 32.0092 20.6844 31.5728C20.9874 31.4208 21.7195 31.0257 22.3113 30.6947C23.0792 30.2653 23.4439 30.1496 23.5849 30.2906C23.862 30.5677 24.0082 34.7175 23.7409 34.7175C23.629 34.7175 23.2397 34.4282 22.8757 34.0747ZM32.8041 31.2273C32.7414 31.1257 33.002 30.6619 33.3833 30.1966C34.0932 29.3302 34.51 29.4035 33.8696 30.282C33.6743 30.5499 33.4607 30.9138 33.395 31.0905C33.2625 31.4465 32.98 31.5119 32.8041 31.2273ZM19.5391 30.9069C19.4205 30.6291 19.1909 30.2238 19.029 30.0062C18.8671 29.7886 18.8086 29.5647 18.899 29.5088C19.1104 29.3782 20.2682 31.0103 20.1266 31.2393C19.9444 31.5342 19.7633 31.4317 19.5391 30.9069ZM31.5391 30.5258C31.4245 30.3403 32.9419 28.6573 33.2238 28.6573C33.6713 28.6573 33.5899 29.0173 32.9595 29.8264C32.3483 30.6109 31.7682 30.8965 31.5391 30.5258ZM20.3969 30.2641C19.6457 29.4757 19.4171 29.0247 19.6504 28.7914C19.8138 28.628 20.0661 28.7783 20.7111 29.4234C21.511 30.2233 21.633 30.6773 21.048 30.6773C20.9064 30.6773 20.6134 30.4914 20.3969 30.2641ZM31.4491 28.9108C32.3511 27.9974 32.8312 27.679 32.6823 28.0929C32.5366 28.4978 30.8304 30.1196 30.6605 30.0146C30.5565 29.9503 30.9069 29.4598 31.4491 28.9108ZM21.1717 29.1046C20.4476 28.309 20.2409 27.919 20.5466 27.9257C20.6955 27.929 22.0861 29.3366 22.3126 29.7132C22.3969 29.8535 22.3502 29.9428 22.1926 29.9428C22.0507 29.9428 21.5913 29.5656 21.1717 29.1046ZM32.7129 26.037C32.7129 24.2495 32.2401 22.3515 31.4038 20.7816C30.6817 19.4263 30.6816 19.4255 31.192 19.7575C32.7965 20.8008 33.9907 23.1931 33.9963 25.3751C33.9997 26.6886 34.3349 26.8296 35.5176 26.0151C36.6407 25.2416 37.9516 24.7078 39.1807 24.5235C39.657 24.452 40.1448 24.2755 40.2646 24.1311C40.5817 23.7491 40.7026 20.4063 40.4375 19.3535C40.1761 18.3152 39.4248 16.6209 39.1508 16.4515C39.0441 16.3855 38.9568 16.2566 38.9568 16.165C38.9568 15.8345 40.2811 16.7892 41.0323 17.6614C41.9848 18.7672 42.6286 20.4794 42.6292 21.9084C42.6297 23.1791 42.9202 23.2887 43.8637 22.3743L44.4725 21.7842L45.0661 22.3859L45.6597 22.9876L44.5663 24.0129C43.2936 25.2064 42.4759 25.608 40.4911 26.0147C38.6837 26.385 36.709 27.3321 35.5423 28.3881L34.6448 29.2004L33.6789 28.2465L32.7129 27.2925V26.037ZM17.6838 28.5757C16.2276 27.2057 14.6214 26.4213 12.4032 25.9969C10.5562 25.6435 9.6082 25.1653 8.38248 23.9686L7.37651 22.9864L7.94981 22.4131L8.52311 21.8398L9.12098 22.4193C10.0888 23.3574 10.3796 23.1444 10.5111 21.4014C10.5775 20.521 10.7738 19.6019 11.0019 19.1032C11.4383 18.1493 12.7853 16.69 13.6355 16.2504L14.2153 15.9506L13.8439 16.4733C12.6121 18.207 12.0475 21.2094 12.5545 23.33L12.7956 24.3384L14.0111 24.5587C15.4577 24.8209 16.2947 25.1518 17.4022 25.8992C18.07 26.3499 18.9088 26.6258 18.948 26.4077C18.9524 26.3823 19.0022 25.7909 19.0582 25.0931C19.2605 22.5768 20.2998 20.7116 22.1499 19.5449L22.6971 19.1997L22.2168 19.8425C21.0764 21.3682 20.5462 23.0529 20.3094 25.9026C20.181 27.4473 20.1708 27.4727 19.3302 28.3312C18.8629 28.8084 18.4527 29.2009 18.4184 29.2035C18.3842 29.2057 18.0536 28.9236 17.6838 28.5757ZM46.0568 22.4504C46.0397 22.6787 45.017 21.566 45.017 21.3193C45.017 20.929 45.4325 21.1345 45.9991 21.805C46.1957 22.0377 46.2789 22.303 46.1969 22.4356C46.0941 22.602 45.7341 22.3847 45.6331 22.1267C45.5566 21.9314 46.0639 22.3556 46.0568 22.4504ZM6.63575 22.2642C6.63575 22.1821 6.87697 21.8838 7.17177 21.6014C7.89853 20.9051 8.31578 21.1632 7.62649 21.8827C7.14167 22.3887 6.63575 22.5835 6.63575 22.2642ZM46.2382 21.1351C45.7709 20.6587 45.6928 20.0383 46.1345 20.3113C46.2302 20.3704 47.1653 21.4284 47.1057 21.5249C47.0559 21.6536 46.1596 20.7485 46.2429 20.7226C46.4662 20.653 47.2175 21.3519 47.1086 21.528C46.9569 21.7735 46.7908 21.6985 46.2382 21.1351ZM5.90119 21.5296C5.90119 21.2896 6.98783 20.317 7.11445 20.4436C7.26946 20.5986 6.42053 21.6559 6.13074 21.6687C6.00448 21.6742 5.90119 21.6117 5.90119 21.5296ZM47.004 20.4172L46.4399 19.89L46.855 19.3286C47.2271 18.8253 47.2663 18.5806 47.2337 16.9639C47.1793 14.268 46.7952 12.6939 45.6284 10.3849C45.2711 9.67786 44.8634 8.96892 44.7224 8.80947C44.5814 8.65001 44.3909 8.41376 44.3909 8.30627C44.3006 8.20584 44.2389 8.14414 44.1155 8.00512C44.0538 7.83565 43.9921 7.77395 43.9151 7.73542C43.9151 7.63538 44.3196 7.75678 44.8141 8.00512C45.9383 8.56977 46.8572 8.59297 47.3299 8.06866C48.2279 7.07282 47.1644 2.20561 45.6995 0.606666C45.0896 -0.0590196 45.4433 -0.0457107 46.3287 0.630341C47.2164 1.30819 47.8957 2.1221 48.4157 3.13104C49.1345 4.52557 49.2363 5.44385 49.2386 10.5541C49.2404 14.8947 49.2778 15.5389 49.5447 15.8338C50.1772 16.5327 51.0582 16.1389 51.7499 14.848C51.9963 14.3882 52.0924 13.6867 52.147 11.9501L52.2191 9.65882L52.5862 10.5728C53.1125 11.8831 53.1426 14.5141 52.643 15.5269C52.3474 16.1259 47.8998 20.9443 47.6425 20.9443C47.6015 20.9443 47.3142 20.7071 47.004 20.4172ZM3.12222 18.6947C0.545933 16.0969 -0.00814819 15.1648 9.15527e-05 13.4425C0.00556946 12.3526 0.498348 9.97477 0.784504 9.6595C0.874023 9.56089 0.942848 10.5016 0.942848 11.8246C0.942848 13.7965 1.00016 14.2766 1.30768 14.8793C1.90566 16.0515 2.70665 16.4396 3.43283 15.9093C3.76844 15.6641 3.79469 15.3229 3.88112 10.0786L3.97295 4.50834L4.51123 3.40648C4.82541 2.76334 5.52552 1.82681 6.19291 1.15687C7.35336 -0.00801022 8.1462 -0.437679 7.31714 0.547614C6.74638 1.22592 5.76542 3.56309 5.52962 4.80639C5.21476 6.46669 5.2956 7.65685 5.75217 8.0822C6.36667 8.65469 6.81789 8.63782 8.25494 7.98862L9.2314 7.5475L8.59726 8.41529C6.93437 10.6909 5.95249 13.5159 5.77262 16.5422C5.6796 18.1064 5.7117 18.3765 6.07474 19.0881L6.48087 19.8842L5.97303 20.4143C5.69372 20.7058 5.43999 20.9443 5.40919 20.9443C5.3784 20.9443 4.34924 19.932 3.12222 18.6947Z" fill="#419498"/>
</svg>
