<svg width="996" height="1024" viewBox="0 0 996 1024" fill="none" xmlns="http://www.w3.org/2000/svg">
<path d="M213.6 363.742C220.018 300.521 242.044 239.886 277.698 187.285C313.352 134.684 361.517 91.766 417.865 62.3883C517.64 10.5 626.501 -21.6246 738.462 -32.2199C1042.85 -60.7452 1128.52 95.287 1179.92 236.075C1231.33 376.862 1398.74 614.722 1381.64 848.743C1381.64 848.743 1368.3 978.214 1318.84 1037.12H211.423C211.423 1037.12 146.714 949.653 215.26 784.07C283.807 618.488 192.412 610.92 209.548 407.423C210.834 391.803 212.208 377.309 213.6 363.742Z" fill="#E6E7E8"/>
<path opacity="0.7" d="M213.6 363.742C220.018 300.521 242.044 239.886 277.698 187.285C313.352 134.684 361.517 91.766 417.865 62.3883C517.64 10.5 626.501 -21.6246 738.462 -32.2199C1042.85 -60.7452 1128.52 95.287 1179.92 236.075C1231.33 376.862 1398.74 614.722 1381.64 848.743C1381.64 848.743 1368.3 978.214 1318.84 1037.12H211.423C211.423 1037.12 146.714 949.653 215.26 784.07C283.807 618.488 192.412 610.92 209.548 407.423C210.834 391.803 212.208 377.309 213.6 363.742Z" fill="#E6E7E8"/>
<g opacity="0.3">
<path d="M412.884 -92.5015H243.768V149.588H412.884V-92.5015Z" stroke="#2F2E41" stroke-width="1.78506" stroke-linecap="round" stroke-linejoin="round"/>
<path d="M593.622 -92.5015H424.505V149.588H593.622V-92.5015Z" stroke="#2F2E41" stroke-width="1.78506" stroke-linecap="round" stroke-linejoin="round"/>
<path d="M774.359 -92.5015H605.243V149.588H774.359V-92.5015Z" stroke="#2F2E41" stroke-width="1.78506" stroke-linecap="round" stroke-linejoin="round"/>
<path d="M412.884 161.191H243.768V403.281H412.884V161.191Z" stroke="#2F2E41" stroke-width="1.78506" stroke-linecap="round" stroke-linejoin="round"/>
<path d="M593.622 161.191H424.505V403.281H593.622V161.191Z" stroke="#2F2E41" stroke-width="1.78506" stroke-linecap="round" stroke-linejoin="round"/>
<path d="M774.359 161.191H605.243V403.281H774.359V161.191Z" stroke="#2F2E41" stroke-width="1.78506" stroke-linecap="round" stroke-linejoin="round"/>
<path d="M412.884 414.902H243.768V656.992H412.884V414.902Z" stroke="#2F2E41" stroke-width="1.78506" stroke-linecap="round" stroke-linejoin="round"/>
<path d="M593.622 414.902H424.505V656.992H593.622V414.902Z" stroke="#2F2E41" stroke-width="1.78506" stroke-linecap="round" stroke-linejoin="round"/>
<path d="M774.359 414.902H605.243V656.992H774.359V414.902Z" stroke="#2F2E41" stroke-width="1.78506" stroke-linecap="round" stroke-linejoin="round"/>
</g>
<path d="M1277.71 -56.0148V714.328C1277.71 724.482 1273.68 734.22 1266.5 741.403C1259.33 748.586 1249.59 752.626 1239.44 752.636H906.561C896.407 752.626 886.673 748.586 879.497 741.403C872.32 734.22 868.289 724.482 868.289 714.328V-56.0327C868.287 -61.0577 869.275 -66.034 871.196 -70.6773C873.117 -75.3205 875.935 -79.5397 879.487 -83.0938C883.04 -86.6478 887.257 -89.4672 891.9 -91.3908C896.542 -93.3143 901.518 -94.3044 906.543 -94.3044H1049.35L1049.47 -93.8581C1053.04 -81.0414 1061.22 -72.723 1070.32 -72.723H1075.39C1084.51 -72.723 1092.67 -81.0414 1096.26 -93.8581L1096.38 -94.3044H1239.19C1244.22 -94.3208 1249.2 -93.3465 1253.85 -91.4373C1258.5 -89.528 1262.73 -86.7211 1266.29 -83.1769C1269.86 -79.6328 1272.69 -75.4208 1274.63 -70.7817C1276.57 -66.1426 1277.57 -61.1672 1277.59 -56.1398L1277.71 -56.0148Z" fill="white"/>
<path d="M1277.71 496.354V-56.0148C1277.71 -66.1667 1273.68 -75.9031 1266.5 -83.0833C1259.33 -90.2634 1249.59 -94.2996 1239.44 -94.3043H1096.63L1096.51 -93.8581C1092.94 -81.0413 1084.76 -72.7229 1075.64 -72.7229H1070.57C1061.49 -72.7229 1053.27 -81.0413 1049.72 -93.8581L1049.62 -94.3043H906.543C901.518 -94.3043 896.542 -93.3143 891.9 -91.3907C887.257 -89.4672 883.04 -86.6478 879.487 -83.0937C875.935 -79.5396 873.117 -75.3204 871.196 -70.6772C869.275 -66.034 868.287 -61.0577 868.289 -56.0326V-56.0326V496.354H1277.71Z" fill="#F1F2F2"/>
<path d="M1303.74 127.989V51.0352H1296.7V-47.4644C1296.7 -63.561 1290.31 -78.9982 1278.93 -90.3802C1267.55 -101.762 1252.11 -108.156 1236.01 -108.156H909.917C893.82 -108.156 878.383 -101.762 867.001 -90.3802C855.619 -78.9982 849.225 -63.561 849.225 -47.4644V-47.4644V735.267C849.225 751.363 855.619 766.8 867.001 778.182C878.383 789.564 893.82 795.959 909.917 795.959H1236.05C1252.14 795.959 1267.58 789.564 1278.96 778.182C1290.35 766.8 1296.74 751.363 1296.74 735.267V193.554H1303.7V148.089H1296.74V127.989H1303.74ZM1277.71 691.908C1277.71 708.004 1271.32 723.441 1259.93 734.823C1248.55 746.205 1233.12 752.6 1217.02 752.6H929.017C912.92 752.6 897.483 746.205 886.101 734.823C874.719 723.441 868.325 708.004 868.325 691.908V-33.6302C868.325 -49.7268 874.719 -65.164 886.101 -76.546C897.483 -87.928 912.92 -94.3223 929.017 -94.3223H1049.42L1049.54 -93.876C1053.11 -81.0593 1061.29 -72.7409 1070.39 -72.7409H1075.46C1084.58 -72.7409 1092.74 -81.0593 1096.33 -93.876L1096.46 -94.3223H1216.98C1233.08 -94.3223 1248.52 -87.928 1259.9 -76.546C1271.28 -65.164 1277.67 -49.7268 1277.67 -33.6302L1277.71 691.908Z" fill="#BCBEC0"/>
<path d="M1255.81 114.101H894.155V345.552H1255.81V114.101Z" stroke="#A7A9AC" stroke-width="1.78506" stroke-miterlimit="10"/>
<path d="M1255.81 319.776H894.155V345.57H1255.81V319.776Z" stroke="#A7A9AC" stroke-width="1.78506" stroke-miterlimit="10"/>
<path d="M1255.81 328.916H894.155V336.431H1255.81V328.916Z" stroke="#A7A9AC" stroke-width="1.78506" stroke-miterlimit="10"/>
<path d="M899.974 89.1463L900.527 56.7832H907.507L911.523 77.0793L915.736 56.7118H922.501L923.073 89.0749H918.396L917.86 67.1365L913.755 89.0749H909.506L905.204 66.958L904.74 89.0749L899.974 89.1463Z" fill="#D8D8D8"/>
<path d="M931.802 89.1463V76.4545L925.483 56.8188H931.802L935.283 68.1897L938.513 56.8188H944.529L938.281 76.4545V89.1463H931.802Z" fill="#D8D8D8"/>
<path d="M965.968 89.5926C963.973 89.695 961.991 89.2242 960.256 88.236C958.88 87.3457 957.853 86.0095 957.346 84.4516C956.762 82.6359 956.484 80.7356 956.525 78.8287V67.2079C956.49 65.2474 956.774 63.2942 957.364 61.4243C957.899 59.9427 958.917 58.6849 960.256 57.8542C962 56.8912 963.978 56.4337 965.968 56.5333C967.856 56.4436 969.736 56.8368 971.43 57.6757C972.718 58.4152 973.703 59.5843 974.215 60.9781C974.797 62.5414 975.076 64.2014 975.036 65.8691V68.511H968.645V65.4764C968.681 64.7748 968.681 64.0717 968.645 63.3701C968.593 62.7801 968.363 62.2199 967.985 61.7635C967.725 61.5427 967.424 61.3754 967.099 61.2712C966.775 61.1671 966.433 61.1281 966.093 61.1566C965.752 61.1264 965.408 61.1663 965.082 61.2737C964.757 61.3812 964.457 61.5539 964.201 61.7813C963.774 62.2385 963.505 62.8203 963.433 63.4415C963.323 64.1859 963.276 64.9382 963.29 65.6906V80.4174C963.275 81.2134 963.341 82.0088 963.487 82.7915C963.594 83.3904 963.888 83.9401 964.326 84.3624C964.839 84.7447 965.471 84.9342 966.111 84.8979C966.434 84.9229 966.759 84.8821 967.065 84.7777C967.372 84.6734 967.655 84.5078 967.896 84.291C968.274 83.8062 968.51 83.2248 968.574 82.613C968.628 81.8821 968.628 81.1483 968.574 80.4174V77.2757H974.982V79.9176C975.02 81.6419 974.748 83.3589 974.179 84.9871C973.679 86.414 972.702 87.6245 971.412 88.4144C969.744 89.3114 967.857 89.7198 965.968 89.5926V89.5926Z" fill="#D8D8D8"/>
<path d="M988.102 89.5925C986.145 89.7005 984.196 89.2551 982.479 88.3073C981.115 87.4833 980.066 86.2266 979.498 84.7372C978.868 82.9129 978.572 80.99 978.624 79.0607V66.8866C978.572 64.9514 978.868 63.0227 979.498 61.1922C980.05 59.6934 981.103 58.4318 982.479 57.6221C984.205 56.7 986.149 56.2678 988.102 56.3726C990.085 56.2632 992.059 56.6952 993.815 57.6221C995.195 58.4321 996.254 59.6929 996.813 61.1922C997.471 63.0104 997.78 64.9362 997.724 66.8687V78.9536C997.78 80.8861 997.471 82.8119 996.813 84.6301C996.254 86.1294 995.195 87.3902 993.815 88.2002C992.078 89.1881 990.099 89.6704 988.102 89.5925V89.5925ZM988.102 84.8264C988.444 84.8618 988.789 84.8279 989.117 84.7266C989.446 84.6254 989.75 84.459 990.012 84.2374C990.428 83.8202 990.703 83.2834 990.798 82.7022C990.94 82.0091 991.011 81.3034 991.012 80.5958V65.3871C991.012 64.6855 990.941 63.9856 990.798 63.2986C990.691 62.716 990.419 62.1767 990.012 61.7456C989.466 61.3324 988.785 61.1353 988.102 61.1922C987.459 61.1426 986.82 61.3405 986.317 61.7456C985.891 62.167 985.605 62.7091 985.496 63.2986C985.368 63.9875 985.302 64.6865 985.3 65.3871V80.6137C985.305 81.3194 985.365 82.0236 985.478 82.7201C985.566 83.3087 985.842 83.8534 986.264 84.2731C986.782 84.6881 987.441 84.8864 988.102 84.8264V84.8264Z" fill="#D8D8D8"/>
<path d="M898.439 390.143V364.617H902.009V390.143H898.439Z" fill="#D1D3D4"/>
<path d="M906.079 390.143V364.617H908.596L915.736 381.593V364.635H918.717V390.161H916.45L909.113 372.668V390.108L906.079 390.143Z" fill="#D1D3D4"/>
<path d="M925.536 390.143V367.312H921.216V364.777H933.301V367.312H929.106V390.161L925.536 390.143Z" fill="#D1D3D4"/>
<path d="M935.764 390.143V364.617H940.834C942.281 364.564 943.724 364.795 945.082 365.295C946.169 365.671 947.074 366.442 947.617 367.455C948.199 368.68 948.481 370.027 948.438 371.382C948.442 372.292 948.328 373.198 948.099 374.078C947.939 374.83 947.602 375.533 947.117 376.13C946.641 376.687 946.025 377.106 945.332 377.344L948.903 390.054H945.475L942.101 378.023H939.335V390.018L935.764 390.143ZM939.335 375.595H940.727C941.593 375.647 942.461 375.526 943.28 375.238C943.889 375.001 944.387 374.542 944.672 373.953C944.991 373.147 945.137 372.284 945.1 371.418C945.208 370.281 944.925 369.141 944.297 368.187C943.855 367.799 943.334 367.51 942.771 367.341C942.207 367.171 941.613 367.125 941.03 367.205H939.459L939.335 375.595Z" fill="#D1D3D4"/>
<path d="M958.667 390.322C957.221 390.395 955.784 390.055 954.525 389.34C953.484 388.651 952.705 387.633 952.312 386.448C951.837 385.034 951.613 383.548 951.651 382.057V372.56C951.629 371.082 951.852 369.61 952.312 368.205C952.728 367.066 953.505 366.094 954.525 365.438C955.796 364.756 957.225 364.423 958.667 364.474C960.096 364.418 961.512 364.764 962.755 365.474C963.772 366.124 964.539 367.099 964.932 368.241C965.417 369.628 965.647 371.091 965.611 372.56V382.271C965.644 383.752 965.415 385.227 964.932 386.627C964.541 387.803 963.777 388.818 962.755 389.519C961.5 390.181 960.079 390.46 958.667 390.322V390.322ZM958.667 387.537C959.421 387.587 960.17 387.379 960.791 386.948C961.293 386.523 961.644 385.947 961.791 385.306C961.951 384.465 962.023 383.609 962.005 382.753V371.561C962.023 370.711 961.951 369.861 961.791 369.026C961.64 368.407 961.288 367.854 960.791 367.455C960.157 367.058 959.413 366.871 958.667 366.92C957.898 366.871 957.132 367.058 956.471 367.455C955.978 367.855 955.633 368.408 955.489 369.026C955.308 369.858 955.224 370.709 955.239 371.561V382.753C955.224 383.611 955.308 384.467 955.489 385.306C955.63 385.945 955.974 386.522 956.471 386.948C957.108 387.41 957.88 387.648 958.667 387.626V387.537Z" fill="#D1D3D4"/>
<path d="M969.288 390.143V364.617H974.857C976.398 364.541 977.934 364.834 979.338 365.474C980.404 366.011 981.245 366.91 981.712 368.008C982.217 369.391 982.459 370.856 982.426 372.328V381.718C982.449 383.27 982.208 384.816 981.712 386.287C981.284 387.465 980.465 388.461 979.391 389.108C978.086 389.818 976.609 390.151 975.125 390.072L969.288 390.143ZM972.858 387.608H974.893C975.878 387.702 976.864 387.429 977.66 386.841C978.258 386.261 978.615 385.477 978.659 384.645C978.783 383.459 978.843 382.267 978.838 381.075V372.775C978.856 371.697 978.766 370.621 978.57 369.561C978.528 369.203 978.409 368.858 978.221 368.55C978.033 368.241 977.781 367.978 977.481 367.776C976.598 367.356 975.614 367.195 974.643 367.312H972.858V387.608Z" fill="#D1D3D4"/>
<path d="M992.315 390.322C990.825 390.421 989.342 390.039 988.085 389.233C987.071 388.468 986.352 387.378 986.05 386.145C985.676 384.602 985.496 383.019 985.514 381.432V364.51H988.924V381.593C988.912 382.597 988.99 383.601 989.156 384.592C989.246 385.394 989.583 386.148 990.12 386.752C990.413 387.025 990.759 387.236 991.136 387.371C991.514 387.506 991.915 387.562 992.315 387.537C992.726 387.565 993.139 387.51 993.529 387.375C993.918 387.24 994.276 387.028 994.582 386.752C995.093 386.134 995.421 385.386 995.528 384.592C995.674 383.599 995.739 382.596 995.725 381.593V364.51H999.098V381.432C999.116 383.019 998.937 384.602 998.563 386.145C998.274 387.374 997.567 388.466 996.564 389.233C995.304 390.05 993.812 390.433 992.315 390.322V390.322Z" fill="#D1D3D4"/>
<path d="M911.595 161.816V137.629H917.146C918.11 137.613 919.072 137.733 920.002 137.986C920.745 138.196 921.429 138.574 922.002 139.092C922.569 139.606 922.983 140.267 923.198 141.002C923.486 141.865 923.625 142.77 923.608 143.68C923.613 144.546 923.481 145.408 923.215 146.233C923.006 146.908 922.601 147.506 922.051 147.951C921.501 148.396 920.832 148.668 920.127 148.732C920.973 148.875 921.765 149.245 922.418 149.801C923.072 150.357 923.563 151.079 923.84 151.891C924.133 152.851 924.278 153.851 924.269 154.854C924.267 155.817 924.147 156.777 923.912 157.71C923.676 158.504 923.288 159.243 922.769 159.888C922.239 160.491 921.58 160.967 920.841 161.281C919.947 161.619 918.995 161.783 918.039 161.763L911.595 161.816ZM914.969 147.732H916.986C917.749 147.747 918.508 147.607 919.217 147.321C919.478 147.188 919.71 147.004 919.9 146.78C920.09 146.556 920.234 146.298 920.324 146.018C920.571 145.264 920.686 144.473 920.663 143.68C920.751 142.802 920.57 141.918 920.145 141.145C919.965 140.887 919.732 140.67 919.461 140.51C919.19 140.35 918.887 140.25 918.574 140.217C917.654 140.066 916.722 139.994 915.79 140.003H914.969V147.732ZM914.969 159.406H917.236C917.79 159.478 918.353 159.418 918.88 159.232C919.407 159.046 919.883 158.739 920.27 158.335C920.882 157.295 921.168 156.095 921.091 154.89C921.106 154.027 920.967 153.169 920.681 152.355C920.446 151.704 919.991 151.155 919.395 150.802C918.673 150.414 917.859 150.229 917.039 150.267H915.022L914.969 159.406Z" fill="#A7A9AC"/>
<path d="M933.48 162.03C932.058 162.133 930.642 161.77 929.445 160.995C928.482 160.269 927.805 159.226 927.535 158.05C927.181 156.601 927.013 155.114 927.036 153.623V137.557H930.249V153.748C930.248 154.692 930.32 155.635 930.463 156.568C930.558 157.322 930.875 158.03 931.373 158.603C931.65 158.871 931.982 159.077 932.345 159.207C932.708 159.336 933.095 159.386 933.48 159.353C933.867 159.385 934.256 159.335 934.622 159.205C934.988 159.076 935.323 158.871 935.604 158.603C936.096 158.028 936.407 157.32 936.496 156.568C936.639 155.635 936.711 154.692 936.711 153.748V137.557H939.906V153.623C939.922 155.114 939.748 156.602 939.388 158.05C939.126 159.224 938.455 160.268 937.496 160.995C936.305 161.767 934.895 162.131 933.48 162.03V162.03Z" fill="#A7A9AC"/>
<path d="M949.135 162.03C947.917 162.087 946.71 161.776 945.672 161.138C944.728 160.527 943.993 159.643 943.565 158.603C943.07 157.437 942.792 156.191 942.744 154.926L945.707 154.105C945.769 154.97 945.894 155.829 946.082 156.675C946.26 157.4 946.616 158.069 947.118 158.621C947.375 158.882 947.684 159.085 948.026 159.217C948.367 159.35 948.733 159.408 949.099 159.388C949.468 159.415 949.838 159.364 950.186 159.238C950.533 159.112 950.85 158.914 951.116 158.657C951.577 158.054 951.811 157.308 951.777 156.55C951.801 155.642 951.539 154.748 951.027 153.998C950.496 153.276 949.899 152.607 949.242 151.998L945.19 148.428C944.437 147.811 943.828 147.037 943.405 146.161C943.007 145.188 942.818 144.142 942.851 143.091C942.801 142.338 942.91 141.583 943.171 140.876C943.433 140.168 943.841 139.524 944.368 138.985C944.927 138.477 945.58 138.084 946.291 137.83C947.002 137.576 947.756 137.465 948.51 137.504C949.371 137.491 950.228 137.624 951.045 137.896C951.721 138.132 952.333 138.523 952.83 139.039C953.362 139.592 953.764 140.257 954.008 140.984C954.331 141.874 954.523 142.806 954.579 143.751L951.723 144.519C951.666 143.784 951.547 143.055 951.366 142.341C951.213 141.72 950.884 141.156 950.42 140.717C949.88 140.272 949.189 140.054 948.492 140.11C948.139 140.084 947.783 140.13 947.449 140.247C947.114 140.364 946.807 140.548 946.546 140.788C946.292 141.047 946.099 141.359 945.978 141.702C945.858 142.044 945.814 142.408 945.85 142.77C945.839 143.383 945.961 143.992 946.207 144.555C946.516 145.109 946.928 145.6 947.421 146L951.491 149.571C952.438 150.384 953.252 151.342 953.901 152.409C954.631 153.586 955.003 154.951 954.972 156.336C955 157.41 954.734 158.472 954.204 159.406C953.739 160.256 953.031 160.946 952.169 161.388C951.229 161.856 950.184 162.077 949.135 162.03V162.03Z" fill="#A7A9AC"/>
<path d="M957.756 161.816V137.629H961.077V161.816H957.756Z" fill="#A7A9AC"/>
<path d="M964.986 161.816V137.629H967.271L974.143 153.694V137.629H976.839V161.816H974.643L967.681 145.322V161.816H964.986Z" fill="#A7A9AC"/>
<path d="M980.748 161.816V137.629H990.119V140.163H984.122V148.161H988.923V150.535H984.068V159.46H990.119V161.87L980.748 161.816Z" fill="#A7A9AC"/>
<path d="M998.599 161.566C997.375 161.626 996.162 161.315 995.118 160.674C994.174 160.063 993.439 159.179 993.011 158.139C992.502 156.977 992.217 155.729 992.172 154.462L995.171 153.658C995.211 154.516 995.348 155.367 995.582 156.193C995.743 156.917 996.087 157.587 996.581 158.139C997.135 158.623 997.845 158.891 998.581 158.891C999.316 158.891 1000.03 158.623 1000.58 158.139C1001.06 157.548 1001.31 156.795 1001.26 156.033C1001.28 155.122 1001.01 154.229 1000.49 153.48C999.946 152.742 999.317 152.071 998.616 151.481L994.564 147.91C993.819 147.293 993.211 146.527 992.779 145.661C992.369 144.685 992.174 143.632 992.208 142.573C992.162 141.818 992.277 141.062 992.545 140.354C992.812 139.646 993.227 139.003 993.761 138.468C994.313 137.969 994.959 137.587 995.661 137.341C996.363 137.096 997.107 136.994 997.849 137.039C998.715 137.02 999.578 137.147 1000.4 137.414C1001.08 137.652 1001.69 138.043 1002.19 138.557C1002.7 139.118 1003.1 139.781 1003.35 140.503C1003.66 141.395 1003.86 142.325 1003.94 143.269L1001.06 144.037C1001.02 143.3 1000.9 142.57 1000.7 141.859C1000.55 141.245 1000.23 140.684 999.777 140.235C999.236 139.792 998.546 139.574 997.849 139.628C997.492 139.593 997.132 139.636 996.793 139.753C996.454 139.87 996.145 140.059 995.885 140.306C995.636 140.569 995.444 140.881 995.321 141.222C995.198 141.563 995.147 141.926 995.171 142.288C995.156 142.906 995.29 143.518 995.564 144.073C995.867 144.631 996.28 145.123 996.778 145.519L1000.87 149.089C1001.81 149.908 1002.63 150.872 1003.28 151.945C1003.99 153.128 1004.35 154.491 1004.31 155.872C1004.35 156.942 1004.09 158.003 1003.58 158.942C1003.1 159.784 1002.38 160.472 1001.53 160.924C1000.62 161.369 999.612 161.59 998.599 161.566Z" fill="#A7A9AC"/>
<path d="M917.664 197.392C916.253 197.487 914.85 197.103 913.683 196.304C912.726 195.581 912.03 194.566 911.702 193.412C911.316 192.09 911.124 190.719 911.131 189.342V180.809C911.124 179.368 911.316 177.932 911.702 176.543C912.01 175.399 912.712 174.4 913.683 173.723C914.843 173.083 916.14 172.733 917.464 172.702C918.788 172.671 920.099 172.96 921.288 173.544C922.176 174.108 922.853 174.948 923.216 175.936C923.625 177.137 923.824 178.399 923.805 179.667V181.666H920.609V179.881C920.609 179.081 920.556 178.282 920.449 177.489C920.411 176.894 920.164 176.332 919.753 175.9C919.173 175.469 918.455 175.266 917.735 175.329C916.991 175.271 916.253 175.494 915.665 175.954C915.168 176.424 914.857 177.058 914.79 177.739C914.663 178.578 914.597 179.425 914.594 180.274V189.877C914.561 190.845 914.663 191.812 914.897 192.751C915.036 193.352 915.384 193.884 915.879 194.251C916.422 194.56 917.039 194.715 917.664 194.697C918.016 194.739 918.372 194.706 918.71 194.602C919.048 194.497 919.361 194.323 919.628 194.09C920.057 193.629 920.32 193.039 920.377 192.412C920.485 191.572 920.538 190.725 920.538 189.877V188.092H923.733V189.877C923.764 191.196 923.577 192.511 923.18 193.769C922.87 194.782 922.244 195.67 921.395 196.304C920.297 197.049 918.991 197.43 917.664 197.392V197.392Z" fill="#A7A9AC"/>
<path d="M933.141 197.392C931.772 197.453 930.415 197.118 929.231 196.429C928.264 195.774 927.536 194.821 927.161 193.715C926.709 192.364 926.491 190.945 926.518 189.52V180.381C926.481 178.99 926.699 177.605 927.161 176.293C927.566 175.24 928.306 174.349 929.267 173.758C930.471 173.151 931.801 172.835 933.149 172.835C934.498 172.835 935.828 173.151 937.032 173.758C937.986 174.361 938.719 175.256 939.12 176.311C939.568 177.626 939.779 179.01 939.745 180.399V189.61C939.781 191.01 939.569 192.406 939.12 193.733C938.73 194.841 937.999 195.797 937.032 196.464C935.855 197.152 934.501 197.475 933.141 197.392V197.392ZM933.141 194.858C933.865 194.916 934.587 194.713 935.176 194.286C935.664 193.91 935.99 193.361 936.086 192.751C936.281 191.988 936.371 191.201 936.354 190.413V179.613C936.372 178.837 936.282 178.062 936.086 177.311C935.977 176.716 935.653 176.182 935.176 175.811C934.553 175.477 933.856 175.302 933.149 175.302C932.442 175.302 931.746 175.477 931.123 175.811C930.637 176.183 930.296 176.714 930.16 177.311C929.993 178.066 929.915 178.839 929.927 179.613V190.324C929.915 191.109 929.993 191.894 930.16 192.662C930.284 193.274 930.626 193.82 931.123 194.197C931.697 194.647 932.411 194.881 933.141 194.858V194.858Z" fill="#A7A9AC"/>
<path d="M942.994 197.143L943.458 172.973H946.76L951.045 192.609L955.329 172.973H958.577L959.024 197.143H956.31L956.043 179.595L951.955 197.143H950.045L946.082 179.595L945.814 197.143H942.994Z" fill="#A7A9AC"/>
<path d="M962.701 197.143L963.147 172.973H966.485L970.752 192.609L975.036 172.973H978.302L978.766 197.143H976.053L975.768 179.595L971.769 197.143H969.859L965.718 179.595L965.468 197.143H962.701Z" fill="#A7A9AC"/>
<path d="M988.727 197.392C987.302 197.475 985.886 197.114 984.675 196.357C983.721 195.626 983.051 194.584 982.783 193.412C982.407 191.961 982.233 190.465 982.266 188.967V172.901H985.496V189.074C985.481 190.03 985.547 190.985 985.693 191.93C985.782 192.68 986.1 193.384 986.603 193.947C987.205 194.424 987.951 194.683 988.718 194.683C989.486 194.683 990.232 194.424 990.834 193.947C991.317 193.375 991.621 192.674 991.708 191.93C991.875 190.987 991.953 190.031 991.941 189.074V172.901H995.136V188.967C995.171 190.467 994.991 191.963 994.6 193.412C994.346 194.563 993.718 195.599 992.815 196.357C991.599 197.131 990.166 197.494 988.727 197.392V197.392Z" fill="#A7A9AC"/>
<path d="M1019.41 423.185H900.474V424.077H1019.41V423.185Z" fill="#D1D3D4"/>
<path d="M1245.9 442.178H987.781V443.07H1245.9V442.178Z" fill="#D1D3D4"/>
<path d="M976.375 442.178H900.474V443.07H976.375V442.178Z" fill="#D1D3D4"/>
<path d="M1024.48 461.153H900.474V462.046H1024.48V461.153Z" fill="#D1D3D4"/>
<path d="M1166.2 480.128H989.049V481.021H1166.2V480.128Z" fill="#D1D3D4"/>
<path d="M977.642 480.128H900.474V481.021H977.642V480.128Z" fill="#D1D3D4"/>
<path d="M1215.54 138.218L1161.15 158.478L1181.37 167.332L1148.47 210.37L1124.43 183.79L1039.67 267.295L989.049 238.181L908.81 309.923H970.27L996.635 279.951L1044.72 303.996L1116.84 223.008L1158.59 240.734L1194.04 174.918L1218.09 187.575L1215.54 138.218Z" fill="#A7A9AC"/>
<path d="M925.75 252.979H913.112V309.923H925.75V252.979Z" fill="#D8D8D8"/>
<path d="M948.528 273.454H935.889V309.905H948.528V273.454Z" fill="#D8D8D8"/>
<path d="M971.323 274.686H958.685V309.923H971.323V274.686Z" fill="#D8D8D8"/>
<path d="M994.1 252.979H981.462V309.923H994.1V252.979Z" fill="#D8D8D8"/>
<path d="M971.644 512.634H910.988C904.323 512.634 898.921 518.037 898.921 524.701V586.125C898.921 592.789 904.323 598.192 910.988 598.192H971.644C978.308 598.192 983.711 592.789 983.711 586.125V524.701C983.711 518.037 978.308 512.634 971.644 512.634Z" fill="#D8D8D8"/>
<path opacity="0.29" d="M941.316 576.646C953.048 576.646 962.558 567.136 962.558 555.404C962.558 543.672 953.048 534.162 941.316 534.162C929.584 534.162 920.074 543.672 920.074 555.404C920.074 567.136 929.584 576.646 941.316 576.646Z" fill="black"/>
<path d="M971.644 623.094H910.988C904.323 623.094 898.921 628.496 898.921 635.161V696.585C898.921 703.249 904.323 708.652 910.988 708.652H971.644C978.308 708.652 983.711 703.249 983.711 696.585V635.161C983.711 628.496 978.308 623.094 971.644 623.094Z" fill="#D8D8D8"/>
<path opacity="0.29" d="M941.316 687.106C953.048 687.106 962.558 677.596 962.558 665.864C962.558 654.132 953.048 644.622 941.316 644.622C929.584 644.622 920.074 654.132 920.074 665.864C920.074 677.596 929.584 687.106 941.316 687.106Z" fill="black"/>
<path d="M903.473 610.313H1247.2" stroke="#A7A9AC" stroke-width="1.78506" stroke-miterlimit="10"/>
<path d="M1223.23 -21.3132H896.261V21.0284H1223.23V-21.3132Z" fill="white" stroke="#A7A9AC" stroke-width="1.78506" stroke-miterlimit="10"/>
<path d="M913.023 6.90857L905.633 16.2266" stroke="#A7A9AC" stroke-width="3.57012" stroke-linecap="round" stroke-linejoin="round"/>
<path d="M918.431 0.107544L913.023 6.90862" stroke="#A7A9AC" stroke-width="1.78506" stroke-miterlimit="10"/>
<path d="M945.672 -21.0276V21.2426" stroke="#A7A9AC" stroke-width="1.78506" stroke-miterlimit="10"/>
<path d="M330.361 542.873C330.379 542.814 330.375 542.75 330.348 542.694C330.322 542.638 330.276 542.593 330.218 542.57C330.162 542.546 330.098 542.546 330.041 542.569C329.984 542.593 329.939 542.638 329.915 542.695C322.816 559.701 317.201 577.29 313.135 595.265C309.031 613.249 305.938 631.45 303.871 649.78L302.586 663.561C302.371 665.864 302.121 668.149 301.943 670.469L301.568 677.342C301.39 681.965 301.086 686.553 300.961 691.176L301.086 705.046L301.229 711.936C301.229 714.257 301.515 716.559 301.675 718.844C302.014 723.468 302.3 728.055 302.711 732.661C303.603 741.854 304.995 750.958 306.388 760.044C306.396 760.103 306.427 760.158 306.472 760.198C306.518 760.237 306.577 760.258 306.638 760.258C306.638 760.258 306.905 760.258 306.87 760.026C306.87 755.42 306.673 750.833 306.566 746.245C306.459 741.657 306.031 737.07 306.084 732.482C306.138 727.895 306.084 723.307 305.924 718.737V691.301L306.281 677.574L306.441 670.719C306.441 668.434 306.691 666.149 306.816 663.865L307.655 650.155C309.224 631.906 311.816 613.759 315.42 595.8C318.862 577.759 323.861 560.051 330.361 542.873V542.873Z" fill="#2F2E41"/>
<path d="M332.307 614.615C332.318 614.585 332.323 614.554 332.322 614.523C332.321 614.491 332.314 614.461 332.3 614.432C332.287 614.404 332.268 614.379 332.245 614.358C332.221 614.337 332.194 614.321 332.164 614.311C332.102 614.288 332.034 614.29 331.974 614.316C331.914 614.343 331.867 614.393 331.843 614.454C327.973 625.874 324.719 637.494 322.096 649.263C319.509 661.077 317.578 673.025 316.313 685.053C315.099 697.049 313.778 709.08 313.599 721.147C313.295 733.235 313.725 745.33 314.885 757.366C314.885 757.432 314.911 757.496 314.958 757.543C315.005 757.589 315.068 757.616 315.135 757.616C315.201 757.616 315.264 757.589 315.311 757.543C315.358 757.496 315.384 757.432 315.384 757.366C316.777 745.335 317.616 733.357 318.455 721.379C319.294 709.401 319.419 697.352 320.24 685.374C320.971 673.404 322.377 661.485 324.453 649.673C326.437 637.854 329.059 626.151 332.307 614.615V614.615Z" fill="#2F2E41"/>
<path d="M372.096 639.838C372.046 639.804 371.987 639.786 371.926 639.786C371.866 639.786 371.807 639.804 371.757 639.838C361.811 646.241 352.851 654.058 345.159 663.043C341.302 667.561 337.827 672.391 334.77 677.485L332.646 681.483L330.968 685.66C330.392 687.022 329.897 688.417 329.487 689.837C329.058 691.283 328.576 692.693 328.201 694.121C325.153 705.603 323.304 717.37 322.685 729.234C322.099 741.025 322.541 752.845 324.006 764.56C324.023 764.613 324.054 764.66 324.094 764.697C324.135 764.735 324.185 764.761 324.238 764.774C324.301 764.77 324.36 764.745 324.405 764.703C324.451 764.661 324.48 764.604 324.488 764.542L327.541 729.555C328.403 717.998 329.899 706.496 332.021 695.103C332.36 693.711 332.771 692.336 333.128 690.944C333.454 689.542 333.859 688.159 334.342 686.803L335.77 682.768L337.555 678.966C340.318 673.884 343.5 669.041 347.069 664.489C354.186 655.225 362.603 647.036 372.06 640.177V640.177C372.102 640.134 372.125 640.076 372.125 640.016C372.125 639.956 372.102 639.899 372.06 639.856L372.096 639.838Z" fill="#2F2E41"/>
<path d="M352.853 684.803C347.676 688.563 343.522 693.558 340.768 699.334C337.844 704.979 335.568 710.938 333.985 717.095C333.503 718.63 333.128 720.183 332.789 721.718L331.7 726.377C331.122 729.5 330.722 732.652 330.504 735.82C330.504 738.98 330.379 742.157 330.504 745.335C330.734 748.504 331.151 751.657 331.754 754.778C331.754 754.825 331.772 754.87 331.806 754.904C331.839 754.937 331.885 754.956 331.932 754.956C331.996 754.968 332.061 754.957 332.117 754.924C332.173 754.891 332.215 754.839 332.236 754.778C332.965 751.705 333.525 748.594 333.913 745.46C334.395 742.389 334.877 739.337 335.252 736.267C335.627 733.196 336.091 730.18 336.341 727.109C336.569 724.037 337.004 720.983 337.644 717.97C338.669 711.914 340.369 705.992 342.714 700.315C344.858 694.514 348.338 689.297 352.871 685.089V685.089C352.912 685.046 352.935 684.988 352.935 684.928C352.935 684.868 352.912 684.811 352.871 684.768V684.768L352.853 684.803Z" fill="#2F2E41"/>
<path d="M297.052 719.844C295.749 704.296 293.196 688.909 290.769 673.557C288.341 658.206 285.699 642.872 282.861 627.592C280.022 612.312 276.899 597.121 273.614 581.894C273.598 581.832 273.561 581.776 273.509 581.737C273.457 581.698 273.393 581.678 273.328 581.68C273.266 581.7 273.212 581.742 273.176 581.797C273.14 581.852 273.125 581.918 273.132 581.984C275.792 597.228 278.202 612.633 280.469 628.02C282.736 643.408 284.985 658.741 286.913 674.146C288.841 689.551 290.287 704.992 292.268 720.362L297.927 766.595C297.944 766.647 297.974 766.695 298.015 766.732C298.055 766.77 298.105 766.796 298.159 766.809C298.219 766.809 298.278 766.788 298.324 766.749C298.37 766.709 298.4 766.655 298.409 766.595V766.595C298.587 762.703 298.605 758.794 298.694 754.885C298.783 750.975 298.534 747.12 298.462 743.21C298.319 735.356 297.659 727.609 297.052 719.844Z" fill="#2F2E41"/>
<path d="M287.752 719.612C286.913 713.471 285.77 707.348 284.61 701.261L282.432 692.158C281.718 689.141 281.058 686.124 280.165 683.232C277.074 671.175 273.101 659.362 268.277 647.888L266.492 643.622L264.403 639.427C263.082 636.642 261.511 633.947 259.994 631.234C256.942 625.785 253.171 620.772 248.784 616.328C248.741 616.287 248.683 616.264 248.623 616.264C248.563 616.264 248.506 616.287 248.463 616.328V616.328C248.421 616.371 248.398 616.429 248.398 616.489C248.398 616.549 248.421 616.606 248.463 616.65V616.65C252.517 621.246 255.933 626.368 258.62 631.876C259.958 634.643 261.404 637.356 262.547 640.212L264.332 644.425L265.956 648.727C270.239 660.246 273.688 672.058 276.274 684.071C277.702 690.033 278.648 696.138 279.844 702.154L281.29 711.258C281.825 714.275 282.468 717.273 282.896 720.326C283.86 726.413 284.967 732.464 286.038 738.516C287.109 744.567 288.091 750.708 289.358 756.795C289.376 756.853 289.411 756.905 289.459 756.943C289.507 756.981 289.565 757.004 289.626 757.009C289.686 757 289.741 756.97 289.78 756.924C289.82 756.878 289.841 756.82 289.84 756.759C289.84 750.565 289.84 744.264 289.412 738.141C288.983 732.018 288.394 725.77 287.752 719.612Z" fill="#2F2E41"/>
<path d="M274.899 720.344C272.025 712.204 268.705 704.278 265.081 696.406C261.418 688.607 257.287 681.037 252.711 673.736C252.69 673.714 252.665 673.696 252.637 673.683C252.609 673.671 252.578 673.664 252.548 673.663C252.517 673.662 252.487 673.667 252.458 673.678C252.429 673.689 252.403 673.706 252.381 673.727C252.359 673.748 252.341 673.773 252.328 673.801C252.316 673.829 252.309 673.86 252.308 673.89C252.307 673.921 252.312 673.951 252.323 673.98C252.334 674.009 252.351 674.035 252.372 674.057V674.057C256.325 681.672 259.818 689.516 262.832 697.549C265.992 705.492 268.848 713.614 271.204 721.736C273.561 729.858 275.363 738.248 277.559 746.477C279.755 754.706 281.683 762.971 284.235 771.272C284.243 771.324 284.269 771.372 284.308 771.407C284.347 771.443 284.397 771.465 284.449 771.468C284.517 771.468 284.583 771.442 284.633 771.396C284.682 771.35 284.713 771.286 284.717 771.218C284.769 762.537 283.914 753.874 282.165 745.37C280.425 736.845 277.995 728.475 274.899 720.344V720.344Z" fill="#2F2E41"/>
<path d="M274.346 747.53C272.766 742.469 270.47 737.66 267.527 733.25C264.776 728.694 261.426 724.527 257.566 720.861C255.598 719.097 253.484 717.503 251.247 716.095C249.054 714.62 246.646 713.494 244.107 712.757C244.064 712.73 244.015 712.716 243.964 712.716C243.914 712.716 243.864 712.73 243.821 712.757C243.788 712.807 243.77 712.866 243.77 712.927C243.77 712.987 243.788 713.046 243.821 713.096V713.096C248.481 715.348 252.602 718.574 255.906 722.557C259.221 726.331 262.013 730.534 264.207 735.053C266.563 739.533 267.777 744.46 269.812 749.048C270.74 751.404 271.597 753.76 272.686 756.188C273.559 758.638 274.602 761.024 275.81 763.328V763.328C275.827 763.366 275.855 763.397 275.889 763.42C275.924 763.442 275.965 763.453 276.006 763.453C276.035 763.458 276.066 763.457 276.095 763.45C276.124 763.442 276.151 763.429 276.175 763.41C276.198 763.392 276.217 763.369 276.232 763.342C276.246 763.316 276.254 763.287 276.256 763.257C276.348 760.599 276.253 757.939 275.97 755.295C275.542 752.707 274.989 750.119 274.346 747.53Z" fill="#2F2E41"/>
<path d="M275.31 604.101C267.557 601.927 260.545 597.677 255.03 591.81C249.516 585.943 245.708 578.682 244.018 570.809C238.109 543.391 257.066 555.136 240.073 512.152C223.079 469.168 227.024 459.225 232.932 446.819C238.841 434.413 242.054 438.34 247.213 454.655C252.372 470.971 271.329 496.444 278.719 544.033C286.109 591.623 275.31 604.101 275.31 604.101Z" fill="#BCBEC0"/>
<path d="M325.559 557.868C325.559 557.868 308.601 551.977 307.941 520.024C307.28 488.072 320.436 494.641 322.311 454.78C324.185 414.92 326.88 386.948 334.038 386.234C341.196 385.52 360.154 405.87 366.687 450.193C373.22 494.516 358.172 523.809 345.124 536.947C332.075 550.085 325.559 557.868 325.559 557.868Z" fill="#BCBEC0"/>
<path d="M266.17 642.586C266.17 642.586 262.261 619.113 254.442 608.01C246.624 596.907 229.648 587.125 218.545 565.49C207.442 543.855 195.071 533.537 195.714 564.187C196.357 594.836 210.173 610.598 227.024 621.059C243.875 631.519 266.17 642.586 266.17 642.586Z" fill="#BCBEC0"/>
<path d="M259.012 683.054C259.012 683.054 243.357 653.029 220.508 630.841C197.66 608.653 179.452 597.585 185.932 608.653C192.412 619.72 200.212 619.077 211.315 638.659C222.419 658.242 219.17 672.576 234.825 683.661C250.48 694.746 259.012 683.054 259.012 683.054Z" fill="#BCBEC0"/>
<path d="M257.049 721.54C256.388 719.576 255.728 705.206 233.54 693.479C211.351 681.751 190.377 686.338 193.09 692.158C195.803 697.977 209.388 707.83 223.097 713.721C236.806 719.612 257.049 721.54 257.049 721.54Z" fill="#BCBEC0"/>
<path d="M324.256 643.89C324.256 643.89 314.456 631.501 319.686 605.404C324.917 579.306 336.645 585.768 349.8 572.112C362.956 558.457 360.261 556.457 373.31 542.105C386.358 527.754 398.086 519.917 403.317 525.79C408.547 531.663 400.782 549.924 392.874 560.384C384.966 570.845 372.578 576.022 366.776 589.07C360.975 602.119 363.51 622.987 348.497 632.787C333.485 642.587 324.256 643.89 324.256 643.89Z" fill="#BCBEC0"/>
<path d="M356.887 651.137L397.355 604.725C414.438 585.09 420.828 570.149 421.489 583.198C422.149 596.246 427.361 606.671 413.652 623.665C399.943 640.659 356.887 651.137 356.887 651.137Z" fill="#BCBEC0"/>
<path d="M344.517 694.121C344.517 694.121 343.856 683.697 381.039 659.545C418.222 635.393 433.895 630.841 429.985 640.641C426.076 650.441 409.671 660.277 392.142 677.824C374.613 695.371 344.517 694.121 344.517 694.121Z" fill="#BCBEC0"/>
<path d="M276.863 601.762C276.758 601.757 276.657 601.718 276.577 601.65C276.496 601.582 276.44 601.49 276.417 601.387C276.417 600.923 267.616 554.208 258.655 521.327C249.694 488.447 243.714 468.061 243.661 467.776C243.628 467.662 243.641 467.54 243.698 467.436C243.755 467.332 243.851 467.255 243.964 467.222C244.078 467.189 244.2 467.202 244.304 467.259C244.408 467.316 244.485 467.412 244.518 467.526C244.518 467.722 250.569 488.125 259.53 521.078C268.491 554.03 277.22 600.745 277.381 601.209C277.402 601.325 277.376 601.444 277.309 601.541C277.242 601.638 277.139 601.705 277.024 601.727L276.863 601.762Z" fill="#2F2E41"/>
<path d="M324.06 558.707H323.917C323.805 558.666 323.713 558.584 323.66 558.478C323.607 558.372 323.597 558.249 323.631 558.135C323.792 557.635 339.536 507.047 344.677 476.808C349.354 449.3 345.106 428.112 342.285 414.081L341.428 409.743C341.418 409.685 341.42 409.624 341.433 409.566C341.447 409.508 341.472 409.454 341.507 409.405C341.542 409.357 341.586 409.316 341.637 409.285C341.688 409.255 341.744 409.234 341.803 409.226C341.919 409.205 342.039 409.23 342.136 409.297C342.233 409.364 342.299 409.467 342.321 409.583C342.571 410.921 342.874 412.367 343.178 413.902C345.998 427.987 350.318 449.282 345.57 476.969C340.429 507.315 324.649 557.903 324.488 558.403C324.458 558.492 324.4 558.57 324.323 558.624C324.246 558.679 324.154 558.708 324.06 558.707Z" fill="#2F2E41"/>
<path d="M264.189 642.104C264.109 642.101 264.032 642.078 263.963 642.038C263.895 641.997 263.837 641.941 263.796 641.872C256.795 629.81 248.768 618.374 239.805 607.689C236.146 603.369 232.772 599.62 229.487 595.996C220.116 585.589 212.69 577.378 207.781 565.15C207.752 565.096 207.735 565.035 207.73 564.973C207.726 564.911 207.734 564.849 207.755 564.79C207.776 564.732 207.81 564.678 207.853 564.633C207.896 564.588 207.947 564.553 208.005 564.529C208.062 564.505 208.124 564.494 208.186 564.495C208.249 564.497 208.31 564.511 208.366 564.538C208.422 564.565 208.472 564.603 208.513 564.65C208.554 564.697 208.584 564.752 208.602 564.811C213.475 576.896 220.83 585.054 230.166 595.389C233.432 598.96 236.824 602.78 240.501 607.117C249.492 617.845 257.549 629.324 264.582 641.426C264.64 641.528 264.656 641.649 264.626 641.763C264.596 641.876 264.522 641.973 264.421 642.033C264.354 642.083 264.272 642.109 264.189 642.104V642.104Z" fill="#2F2E41"/>
<path d="M324.256 644.336C324.197 644.327 324.141 644.307 324.09 644.276C324.039 644.245 323.995 644.204 323.96 644.156C323.925 644.108 323.9 644.053 323.887 643.995C323.873 643.937 323.871 643.877 323.882 643.818C323.882 643.515 329.237 612.223 341.589 595.996C346.409 589.642 353.049 582.002 360.065 573.897C371.132 561.134 382.574 547.925 388.626 537.982C388.655 537.931 388.694 537.887 388.741 537.853C388.788 537.818 388.841 537.793 388.898 537.78C388.955 537.766 389.014 537.765 389.072 537.775C389.129 537.785 389.184 537.807 389.233 537.839C389.334 537.899 389.408 537.996 389.438 538.11C389.468 538.223 389.452 538.344 389.393 538.446C383.395 548.442 371.918 561.652 360.832 574.486C353.817 582.573 347.194 590.213 342.393 596.55C330.219 612.615 324.917 643.658 324.863 643.979C324.852 644.045 324.826 644.107 324.787 644.162C324.749 644.217 324.7 644.263 324.642 644.297C324.584 644.331 324.52 644.352 324.453 644.358C324.387 644.365 324.32 644.358 324.256 644.336V644.336Z" fill="#2F2E41"/>
<path d="M255.513 721.272C255.432 721.296 255.345 721.296 255.264 721.272C255.049 721.129 233.147 706.902 217.777 699.173C217.723 699.147 217.675 699.111 217.635 699.067C217.595 699.022 217.564 698.97 217.544 698.914C217.525 698.857 217.516 698.798 217.519 698.738C217.522 698.678 217.537 698.62 217.563 698.566C217.589 698.512 217.625 698.464 217.669 698.424C217.714 698.384 217.766 698.353 217.822 698.333C217.879 698.313 217.938 698.305 217.998 698.308C218.058 698.311 218.116 698.326 218.17 698.352C233.664 706.117 255.656 720.379 255.817 720.522C255.867 720.555 255.909 720.597 255.943 720.646C255.976 720.695 255.999 720.75 256.011 720.808C256.022 720.867 256.022 720.926 256.01 720.985C255.999 721.043 255.975 721.098 255.942 721.147C255.887 721.202 255.819 721.243 255.744 721.264C255.669 721.286 255.59 721.289 255.513 721.272V721.272Z" fill="#2F2E41"/>
<path d="M381.235 852.349C379.789 812.774 335.788 786.302 335.788 786.302H268.366C268.366 786.302 224.364 812.703 222.865 852.349C221.365 891.995 272.721 1037.14 272.721 1037.14H331.361C331.361 1037.14 382.806 891.924 381.235 852.349Z" fill="#2F2E41"/>
<path d="M344.463 747.423H258.441L268.366 786.355H334.538L344.463 747.423Z" fill="#2F2E41"/>
<path d="M685.463 531.377C685.463 531.377 663.204 554.976 663.204 562.384C663.204 569.792 665.881 587.374 664.542 594.104C663.204 600.834 607.885 643.354 607.885 643.354L624.735 685.838C624.735 685.838 669.915 614.436 683.428 595.479C696.941 576.521 711.757 557.011 713.114 546.889C714.47 536.768 691.604 527.414 685.463 531.377Z" fill="#F9B499"/>
<path d="M689.23 706.474L754.813 680.626C754.813 680.626 797.511 632.43 830.214 597.067C862.916 561.705 903.83 569.792 903.83 595.282C903.83 620.773 892.03 658.759 881.124 675.253C870.217 691.747 848.404 734.303 848.404 734.303C848.404 734.303 924.751 752.475 945.636 764.274C966.521 776.073 1050.45 835.677 1093.62 866.737C1122 887.051 1138.48 895.298 1143.01 895.298C1144.24 895.298 1146.42 895.083 1149.01 894.78C1159.4 893.566 1171.86 882.624 1180.78 876.929C1193.05 869.307 1211.81 858.775 1222.73 857.633C1239.99 855.848 1233.64 881.231 1220.95 899.421C1208.25 917.611 1185.41 923.055 1177.34 929.392C1169.27 935.729 1151.95 939.389 1145.53 940.317C1139.1 941.245 1081.93 917.593 1057.38 907.597C1032.84 897.6 986.549 895.298 958.577 861.899C949.294 850.676 938.853 840.462 927.428 831.428C927.428 831.428 775.698 837.765 748.44 840.514C721.182 843.263 658.491 845.048 632.143 845.048C605.796 845.048 592.372 834.623 592.372 834.623C592.372 834.623 582.215 820.504 597.62 797.815C613.025 775.127 689.23 706.474 689.23 706.474Z" fill="#2F2E41"/>
<path d="M749.244 713.079C747.296 711.703 745.276 710.434 743.192 709.276" stroke="#263238" stroke-width="1.78506" stroke-miterlimit="10"/>
<path d="M848.386 734.285L766.13 729.465C762.737 724.893 758.812 720.74 754.438 717.095" stroke="#263238" stroke-width="1.78506" stroke-miterlimit="10"/>
<path d="M701.654 749.03C705.239 745.811 709.351 743.233 713.81 741.407" stroke="#263238" stroke-width="1.78506" stroke-miterlimit="10"/>
<path d="M678.02 775.359C683.022 768.499 688.491 761.992 694.389 755.884" stroke="#263238" stroke-width="1.78506" stroke-miterlimit="10"/>
<path d="M687.248 750.583C687.248 750.583 668.88 767.077 664.4 788.194" stroke="#263238" stroke-width="1.78506" stroke-miterlimit="10"/>
<path d="M689.23 706.474C689.108 708.954 688.62 711.402 687.784 713.739C686.32 718.13 676.877 754.563 651.369 785.855C634.846 805.557 614.887 822.098 592.462 834.677C561.711 810.807 533.619 783.697 508.671 753.814C465.669 702.815 440.142 654.029 441.642 597.192C443.141 540.356 461.278 504.673 461.278 504.673L459.814 460.957C462.723 453.674 478.039 443.499 498.425 456.601C518.81 469.703 534.858 500.317 534.858 500.317L531.948 517.811C531.948 517.811 540.677 523.648 545.782 526.576C550.888 529.503 569.827 546.211 586.571 567.346C603.315 588.481 620.826 651.887 623.736 667.899C626.646 683.911 650.655 686.838 650.655 686.838L675.396 699.994L689.23 706.474Z" fill="#F27900"/>
<path d="M534.822 500.353L531.948 517.811C531.948 517.811 486.786 503.245 461.295 504.709L459.832 460.992C462.741 453.709 478.057 443.535 498.442 456.637C518.828 469.739 534.822 500.353 534.822 500.353Z" fill="#F9B499"/>
<path d="M576.753 380.165C575.807 388.108 560.331 382.717 560.331 382.717L528.378 392.196C528.378 392.196 529.038 405.459 528.735 414.242C528.432 423.024 510.17 428.933 510.17 428.933L507.671 469.061L459.475 467.079L452.549 450.889C452.549 450.889 422.078 422.328 425.416 394.177C427.433 376.898 440.446 360.029 461.349 351.015C468.64 347.933 476.334 345.908 484.198 344.999C492.643 344.035 501.176 344.125 509.599 345.267C558.099 351.515 577.699 372.114 576.753 380.165Z" fill="#2F2E41"/>
<path d="M490.356 593.587C499.884 621.992 511.828 649.529 526.057 675.896C549.388 718.88 584.447 765.506 597.46 762.596C610.473 759.686 684.142 632.911 689.23 622.005C694.317 611.098 702.368 595.033 702.368 595.033C702.368 595.033 719.112 582.644 720.558 577.539C722.004 572.434 718.63 548.246 718.63 548.246C718.63 548.246 727.555 536.572 724.628 531.466C721.7 526.361 716.827 527.896 711.757 530.895C706.688 533.894 695.585 541.963 695.585 541.963C696.996 536.27 697.1 530.332 695.888 524.594C693.71 516.597 687.052 519.239 686.32 524.398C685.588 529.556 685.606 534.537 683.428 539.624C680.304 545.734 678.056 552.255 676.752 558.992C675.306 567.721 671.397 591.355 671.397 591.355C671.397 591.355 631.055 636.392 620.13 647.353C614.775 652.708 603.261 661.526 603.261 661.526L573.469 602.28C573.469 602.28 558.224 548.371 542.141 533.734C534.351 526.668 524.608 522.12 514.188 520.687C503.769 519.253 493.16 521.001 483.751 525.701" fill="#F27900"/>
<path d="M696.013 560.42C695.044 560.226 694.19 559.658 693.636 558.84C693.082 558.022 692.871 557.019 693.05 556.047L711.008 472.149C711.218 471.21 711.783 470.388 712.585 469.856C713.386 469.324 714.363 469.122 715.31 469.293V469.293C715.792 469.385 716.251 469.571 716.661 469.841C717.071 470.11 717.423 470.458 717.698 470.865C717.974 471.271 718.166 471.727 718.265 472.208C718.363 472.689 718.366 473.184 718.273 473.666V473.666L700.315 557.421C700.132 558.384 699.58 559.238 698.776 559.798C697.972 560.359 696.98 560.582 696.013 560.42V560.42Z" fill="#2F2E41"/>
<path d="M720.558 577.557C722.004 572.469 718.63 548.246 718.63 548.246C718.63 548.246 727.555 536.572 724.628 531.466C721.7 526.361 716.827 527.896 711.757 530.895C706.688 533.894 695.585 541.963 695.585 541.963C696.996 536.27 697.1 530.332 695.888 524.594C693.71 516.597 687.052 519.239 686.32 524.398C685.588 529.556 685.606 534.537 683.428 539.624C680.304 545.734 678.056 552.255 676.752 558.992C675.306 567.721 671.397 591.355 671.397 591.355C671.397 591.355 664.596 598.977 655.813 608.67L684.928 630.091C687.159 626.075 688.694 623.236 689.265 621.969C694.353 611.027 702.404 594.997 702.404 594.997C702.404 594.997 719.112 582.644 720.558 577.557Z" fill="#F9B499"/>
<path d="M854.544 610.295C854.544 610.295 849.332 637.82 857.829 658.777C866.326 679.734 906.311 755.742 908.935 769.451C911.559 783.16 902.384 806.169 909.596 814.666C916.807 823.163 951.527 825.823 984.283 823.859C1017.04 821.896 1036.05 817.951 1039.98 804.224C1043.9 790.497 1046.53 783.231 1036.69 783.231C1026.86 783.231 1017.06 784.552 1003.92 781.946C990.78 779.34 962.005 762.917 958.078 760.311C954.151 757.705 950.938 749.833 950.938 749.833C950.938 749.833 941.709 722.986 932.516 660.062C923.323 597.139 929.981 570.327 900.385 561.063C870.788 551.798 836.64 589.624 830.178 596.996" fill="#2F2E41"/>
<path d="M1039.98 804.117C1043.9 790.354 1046.53 783.142 1036.69 783.142C1026.86 783.142 1017.06 784.463 1003.92 781.857C990.78 779.251 962.005 762.846 958.078 760.222C954.15 757.598 950.937 749.744 950.937 749.744C947.311 737.955 944.332 725.978 942.012 713.864C918.931 705.867 901.402 721.004 892.709 731.215C901.134 748.833 907.953 763.989 909.042 769.29C911.577 783.053 902.491 805.991 909.702 814.506C916.914 823.021 951.634 825.645 984.389 823.699C1017.15 821.753 1036.03 817.987 1039.98 804.117Z" fill="#F9B499"/>
<path d="M1036.69 783.232C1026.87 783.232 1017.06 784.553 1003.92 781.946C990.78 779.34 962.005 762.918 958.078 760.311C954.151 757.705 950.937 749.833 950.937 749.833C950.937 749.833 950.152 747.548 948.831 742.693C925.625 741.265 912.612 751.35 905.847 760.24C907.165 763.201 908.222 766.271 909.006 769.415C911.541 783.178 902.455 806.134 909.667 814.631C916.879 823.128 951.598 825.787 984.354 823.824C1017.11 821.86 1036.12 817.915 1040.05 804.188C1043.97 790.461 1046.53 783.232 1036.69 783.232Z" fill="#F27900"/>
<path d="M719.915 939.121H464.705V954.276H719.915V939.121Z" fill="#D1D3D4"/>
<path d="M687.052 860.774L769.665 1024.82C770.271 1026.04 770.557 1027.39 770.495 1028.75C770.434 1030.12 770.026 1031.44 769.312 1032.6C768.597 1033.76 767.599 1034.71 766.412 1035.38C765.224 1036.05 763.886 1036.4 762.524 1036.41V1036.41C761.096 1036.41 759.694 1036.02 758.466 1035.29C757.237 1034.57 756.228 1033.52 755.545 1032.27L664.31 865.826L687.052 860.774Z" fill="#D1D3D4"/>
<path d="M502.12 817.023L427.004 1026.25C426.514 1027.52 426.356 1028.89 426.547 1030.24C426.737 1031.59 427.269 1032.87 428.092 1033.95C428.915 1035.03 430.001 1035.89 431.248 1036.43C432.495 1036.98 433.861 1037.2 435.216 1037.07V1037.07C436.642 1036.93 438.005 1036.41 439.163 1035.56C440.322 1034.72 441.233 1033.58 441.802 1032.27L525.111 819.843L502.12 817.023Z" fill="#D1D3D4"/>
<path d="M481.127 566.436C481.127 566.436 445.765 518.418 430.61 520.935C415.455 523.452 400.139 630.859 417.918 702.904C435.698 774.949 497.568 849.279 583.358 872.181C683.178 898.707 768.344 851.867 769.004 843.138C769.665 834.409 676.949 798.887 481.127 566.436Z" fill="#D1D3D4"/>
<path opacity="0.29" d="M583.358 872.163C683.178 898.689 768.344 851.849 769.004 843.12C769.308 839.425 753.474 831.178 720.808 806.205C556.993 812.007 461.617 747.173 418.972 707.474C438.322 778.019 499.406 849.814 583.358 872.163Z" fill="black"/>
<path d="M1222.77 931.052C1222.77 931.052 1193.56 920.645 1125.48 915.826C1057.4 911.006 992.833 918.36 990.298 924.751C988.37 929.571 998.277 992.78 1002.99 1022.23C1003.67 1026.4 1005.81 1030.19 1009.02 1032.93C1012.24 1035.66 1016.32 1037.18 1020.54 1037.19H1206.18C1210.43 1037.18 1214.52 1035.65 1217.74 1032.88C1220.96 1030.12 1223.09 1026.3 1223.75 1022.11L1235.03 948.689C1235.72 944.78 1234.85 940.756 1232.62 937.475C1230.39 934.194 1226.96 931.915 1223.07 931.124L1222.77 931.052Z" fill="#D8D8D8"/>
<path opacity="0.29" d="M1219.5 1031.12C1129.46 1031.32 1081.53 986.496 1058.84 947.225C1050.01 931.998 1035.64 922.752 1020.77 917.343C1002.79 919.342 991.208 922.109 990.298 924.733C988.37 929.553 998.277 992.762 1002.99 1022.22C1003.67 1026.38 1005.81 1030.17 1009.02 1032.91C1012.24 1035.65 1016.32 1037.16 1020.54 1037.17H1206.18C1208.71 1037.17 1211.2 1036.63 1213.49 1035.58C1215.79 1034.54 1217.84 1033.02 1219.5 1031.12Z" fill="black"/>
<path d="M560.331 382.718C560.331 382.718 599.602 449.3 562.116 511.777C559.027 516.9 553.458 523.255 539.963 519.382C526.468 515.508 506.672 503.048 499.335 497.051C491.998 491.053 487.322 447.979 487.322 447.979L502.548 443.16C502.548 443.16 498.871 424.399 500.763 420.936C502.655 417.473 523.612 419.954 520.006 407.048C516.4 394.142 508.903 388.876 513.116 384.199C517.328 379.522 560.295 382.557 560.295 382.557" fill="#F9B499"/>
<path d="M470.131 431.378L451.942 441.535C451.174 440.125 434.984 410.297 447.622 350.908C454.906 347.805 462.603 345.779 470.471 344.892C463.098 373.346 462.848 394.285 464.294 407.369C465.901 423.328 470.114 431.307 470.131 431.378Z" fill="#2F2E41"/>
<path opacity="0.2" d="M470.131 431.378L451.942 441.535C451.174 440.125 434.984 410.297 447.622 350.908C454.906 347.805 462.603 345.779 470.471 344.892C463.098 373.346 462.848 394.285 464.294 407.369C465.901 423.328 470.114 431.307 470.131 431.378Z" fill="black"/>
<path d="M479.021 480.699C495.524 480.699 508.903 467.321 508.903 450.818C508.903 434.314 495.524 420.936 479.021 420.936C462.518 420.936 449.139 434.314 449.139 450.818C449.139 467.321 462.518 480.699 479.021 480.699Z" fill="#2F2E41"/>
<path opacity="0.2" d="M479.021 480.699C495.524 480.699 508.903 467.321 508.903 450.818C508.903 434.314 495.524 420.936 479.021 420.936C462.518 420.936 449.139 434.314 449.139 450.818C449.139 467.321 462.518 480.699 479.021 480.699Z" fill="black"/>
<path d="M953.633 666.346L935.157 655.653V677.02L953.633 666.346Z" fill="white"/>
<path d="M953.633 555.868L935.157 545.211V566.561L953.633 555.868Z" fill="white"/>
<path d="M935.104 -7.12198C935.111 -9.10687 934.529 -11.0492 933.432 -12.7033C932.335 -14.3574 930.771 -15.6488 928.94 -16.414C927.108 -17.1793 925.091 -17.3842 923.143 -17.0026C921.195 -16.6209 919.405 -15.6701 917.997 -14.2703C916.59 -12.8705 915.629 -11.0847 915.237 -9.13891C914.845 -7.1931 915.04 -5.17473 915.795 -3.33922C916.551 -1.50372 917.834 0.0664058 919.482 1.17247C921.13 2.27854 923.069 2.87082 925.054 2.87436C927.705 2.87436 930.248 1.82119 932.123 -0.0534912C933.997 -1.92817 935.05 -4.47078 935.05 -7.12198H935.104Z" fill="white" stroke="#A7A9AC" stroke-width="1.78506" stroke-miterlimit="10"/>
</svg>
