<svg width="306" height="255" viewBox="0 0 306 255" fill="none" xmlns="http://www.w3.org/2000/svg">
<g clip-path="url(#clip0_246_763)">
<path d="M14.1923 242.961C18.429 250.818 27.4207 254.191 27.4207 254.191C27.4207 254.191 29.5434 244.825 25.3068 236.968C21.0701 229.111 12.0784 225.738 12.0784 225.738C12.0784 225.738 9.95569 235.104 14.1923 242.961Z" fill="#2F2E41"/>
<path d="M17.1044 240.376C24.7533 244.978 27.6991 254.118 27.6991 254.118C27.6991 254.118 18.2436 255.798 10.5947 251.196C2.94583 246.594 0 237.454 0 237.454C0 237.454 9.45548 235.774 17.1044 240.376Z" fill="#6C63FF"/>
<path d="M188.593 12.2405H140.87V12.9222H188.593V12.2405Z" fill="#F2F2F2"/>
<path d="M175.64 12.7517H174.958V19.0581H175.64V12.7517Z" fill="#F2F2F2"/>
<path d="M154.846 12.7517H154.164V19.0581H154.846V12.7517Z" fill="#F2F2F2"/>
<path d="M212.796 44.9653H165.073V45.6471H212.796V44.9653Z" fill="#F2F2F2"/>
<path d="M178.708 38.8293H178.026V45.1357H178.708V38.8293Z" fill="#F2F2F2"/>
<path d="M199.502 38.8293H198.82V45.1357H199.502V38.8293Z" fill="#F2F2F2"/>
<path d="M276.201 60.3049H228.477V60.9867H276.201V60.3049Z" fill="#F2F2F2"/>
<path d="M242.112 54.1692H241.431V60.4755H242.112V54.1692Z" fill="#F2F2F2"/>
<path d="M262.906 54.1692H262.224V60.4755H262.906V54.1692Z" fill="#F2F2F2"/>
<path d="M271.428 218.475H223.705V219.157H271.428V218.475Z" fill="#F2F2F2"/>
<path d="M237.34 212.339H236.658V218.645H237.34V212.339Z" fill="#F2F2F2"/>
<path d="M258.134 212.339H257.452V218.645H258.134V212.339Z" fill="#F2F2F2"/>
<path d="M189.957 109.052H142.233V109.733H189.957V109.052Z" fill="#F2F2F2"/>
<path d="M155.869 102.916H155.187V109.222H155.869V102.916Z" fill="#F2F2F2"/>
<path d="M176.663 102.916H175.981V109.222H176.663V102.916Z" fill="#F2F2F2"/>
<path d="M204.956 191.204H157.232V191.886H204.956V191.204Z" fill="#F2F2F2"/>
<path d="M170.868 185.069H170.186V191.375H170.868V185.069Z" fill="#F2F2F2"/>
<path d="M191.661 185.069H190.98V191.375H191.661V185.069Z" fill="#F2F2F2"/>
<path d="M281.314 166.32H233.59V167.002H281.314V166.32Z" fill="#F2F2F2"/>
<path d="M247.226 160.184H246.544V166.49H247.226V160.184Z" fill="#F2F2F2"/>
<path d="M268.019 160.184H267.338V166.49H268.019V160.184Z" fill="#F2F2F2"/>
<path d="M123.42 239.363H42.7039V238.783H122.84V210.619H49.4896L45.9263 203.196L46.4499 202.944L49.855 210.038H123.42V239.363Z" fill="#2F2E41"/>
<path d="M53.4467 253.59C56.8141 253.59 59.544 250.86 59.544 247.493C59.544 244.126 56.8141 241.396 53.4467 241.396C50.0792 241.396 47.3494 244.126 47.3494 247.493C47.3494 250.86 50.0792 253.59 53.4467 253.59Z" fill="#3F3D56"/>
<path d="M113.549 253.59C116.916 253.59 119.646 250.86 119.646 247.493C119.646 244.126 116.916 241.396 113.549 241.396C110.181 241.396 107.451 244.126 107.451 247.493C107.451 250.86 110.181 253.59 113.549 253.59Z" fill="#3F3D56"/>
<path d="M184.393 121.772C186.478 121.772 188.168 120.083 188.168 117.998C188.168 115.913 186.478 114.223 184.393 114.223C182.309 114.223 180.619 115.913 180.619 117.998C180.619 120.083 182.309 121.772 184.393 121.772Z" fill="#3F3D56"/>
<path d="M132.053 201.037H41.3276L21.6967 136.871H152.27L152.151 137.248L132.053 201.037ZM41.7572 200.457H131.628L151.479 137.451H22.4816L41.7572 200.457Z" fill="#2F2E41"/>
<path d="M124.971 197.698H45.2837L28.0411 140.79H142.728L142.624 141.125L124.971 197.698Z" fill="#F2F2F2"/>
<path d="M153.897 131.138L153.336 130.989L157.168 116.546H179.458V117.127H157.614L153.897 131.138Z" fill="#2F2E41"/>
<path d="M145.745 156.324H28.0406V156.905H145.745V156.324Z" fill="#2F2E41"/>
<path d="M139.005 177.718H34.5857V178.298H139.005V177.718Z" fill="#2F2E41"/>
<path d="M87.2722 137.161H86.6915V200.747H87.2722V137.161Z" fill="#2F2E41"/>
<path d="M113.271 137.143L109.102 200.727L109.682 200.765L113.85 137.181L113.271 137.143Z" fill="#2F2E41"/>
<path d="M60.7048 137.142L60.1252 137.18L64.2695 200.766L64.8491 200.728L60.7048 137.142Z" fill="#2F2E41"/>
<path d="M305.432 253.958H0V254.64H305.432V253.958Z" fill="#2F2E41"/>
<path d="M202.966 21.0926C202.966 21.0926 207.949 35.2755 204.883 37.4575C201.816 39.6395 215.232 57.459 215.232 57.459L231.332 53.095L222.515 38.1848C222.515 38.1848 221.365 23.2746 221.365 21.0926C221.365 18.9106 202.966 21.0926 202.966 21.0926Z" fill="#A0616A"/>
<path opacity="0.1" d="M202.966 21.0926C202.966 21.0926 207.949 35.2755 204.883 37.4575C201.816 39.6395 215.232 57.459 215.232 57.459L231.332 53.095L222.515 38.1848C222.515 38.1848 221.365 23.2746 221.365 21.0926C221.365 18.9106 202.966 21.0926 202.966 21.0926Z" fill="black"/>
<path d="M194.602 122.191C194.602 122.191 193.147 140.374 194.602 149.83C196.056 159.285 198.238 185.469 198.238 185.469C198.238 185.469 198.238 234.927 206.239 235.654C214.24 236.382 220.058 237.109 220.785 234.2C221.513 231.291 217.149 229.836 219.331 228.381C221.513 226.927 222.24 221.835 219.331 216.017C216.422 210.198 219.331 151.284 219.331 151.284L233.15 188.378C233.15 188.378 234.605 218.926 236.059 223.29C237.514 227.654 234.605 235.654 239.696 236.382C244.787 237.109 250.606 232.745 253.515 231.29C256.425 229.836 249.151 229.836 250.606 229.108C252.061 228.381 256.425 226.199 254.97 225.472C253.515 224.745 252.061 189.833 252.061 189.833C252.061 189.833 248.06 115.282 242.969 112.372C237.878 109.463 234.605 114.474 234.605 114.474L194.602 122.191Z" fill="#2F2E41"/>
<path d="M207.694 232.745V238.564C207.694 238.564 201.148 254.381 207.694 254.381C214.24 254.381 219.331 256.02 219.331 253.838V234.2L207.694 232.745Z" fill="#2F2E41"/>
<path d="M250.606 232.735V238.553C250.606 238.553 257.152 254.37 250.606 254.37C244.06 254.37 238.969 256.009 238.969 253.827V234.19L250.606 232.735Z" fill="#2F2E41"/>
<path d="M213.149 31.6389C220.379 31.6389 226.24 25.7775 226.24 18.547C226.24 11.3165 220.379 5.45508 213.149 5.45508C205.918 5.45508 200.057 11.3165 200.057 18.547C200.057 25.7775 205.918 31.6389 213.149 31.6389Z" fill="#A0616A"/>
<path d="M209.148 42.9124C209.148 42.9124 212.785 53.8223 218.603 51.6403L224.422 49.4583L234.605 119.282C234.605 119.282 226.604 130.919 214.967 123.646C203.33 116.373 209.148 42.9124 209.148 42.9124Z" fill="#6C63FF"/>
<path d="M219.331 40.7304L222.604 33.8208C222.604 33.8208 241.878 42.9124 244.787 45.8217C247.697 48.731 247.697 53.095 247.697 53.095L242.605 71.2782C242.605 71.2782 244.06 111.281 244.06 112.736C244.06 114.191 249.151 122.191 245.515 119.282C241.878 116.373 241.151 113.463 238.241 117.827C235.332 122.191 228.786 127.283 228.786 127.283L219.331 40.7304Z" fill="#3F3D56"/>
<path d="M244.787 93.0981L242.605 113.463C242.605 113.463 229.513 125.101 232.423 125.828C235.332 126.555 236.787 123.646 236.787 123.646C236.787 123.646 241.878 128.737 244.787 125.828C247.697 122.919 254.97 95.2801 254.97 95.2801L244.787 93.0981Z" fill="#A0616A"/>
<path d="M213.427 0.044271C210.525 -0.0594839 207.419 -0.110808 204.972 1.45322C203.846 2.23813 202.859 3.20483 202.05 4.31375C199.667 7.32664 197.607 11.1175 198.493 14.8557L199.521 14.4547C199.521 15.4525 199.299 16.4379 198.871 17.3395C199.016 16.9184 199.501 17.5991 199.371 18.0249L198.239 21.7408C200.101 21.0582 202.417 22.4403 202.7 24.403C202.83 20.087 203.277 15.1379 206.779 12.6107C208.544 11.3362 210.779 10.9472 212.929 10.6017C214.912 10.283 216.991 9.97904 218.891 10.632C220.791 11.2849 222.408 13.2278 221.978 15.1899C222.854 14.8882 223.833 15.4986 224.266 16.3178C224.699 17.1369 224.722 18.1031 224.735 19.0295C225.669 19.6894 226.731 18.379 227.112 17.3008C228.005 14.77 228.799 12.076 228.318 9.43563C227.837 6.79527 225.685 4.27201 223.001 4.26306C223.327 3.90524 223.501 3.43474 223.486 2.95108L221.274 2.76417C221.835 2.68466 222.352 2.41236 222.735 1.99393C221.847 2.97122 214.864 0.0956115 213.427 0.044271Z" fill="#2F2E41"/>
<path d="M212.785 38.5483C212.785 38.5483 206.864 32.7462 204.733 33.1016C202.602 33.457 199.693 38.5483 199.693 38.5483C199.693 38.5483 182.237 44.367 182.964 50.1856C183.692 56.0042 191.692 84.37 191.692 84.37C191.692 84.37 198.238 118.554 192.42 122.191C186.601 125.828 220.058 135.283 220.785 130.919C221.513 126.555 222.967 82.9154 220.785 76.3694C218.603 69.8235 212.785 38.5483 212.785 38.5483Z" fill="#3F3D56"/>
<path d="M238.241 50.1855H247.235C247.235 50.1855 253.515 77.824 254.243 80.7334C254.97 83.6427 256.425 97.4619 255.697 97.4619C254.97 97.4619 240.423 94.5526 240.423 96.7346L238.241 50.1855Z" fill="#3F3D56"/>
<path d="M237.937 118.628H203.508C200.148 103.172 199.867 88.2391 203.508 73.9719H237.937C232.381 87.9825 232.034 102.813 237.937 118.628Z" fill="#F2F2F2"/>
<path d="M189.51 99.644L199.693 104.008C199.693 104.008 219.331 106.917 219.331 98.9167C219.331 90.9161 199.693 95.2801 199.693 95.2801L193.147 93.187L189.51 99.644Z" fill="#A0616A"/>
<path d="M191.692 45.8218L182.964 48.0038L176.418 86.5522C176.418 86.5522 174.236 96.7348 177.873 97.4621C181.51 98.1894 191.692 104.008 191.692 104.008C191.692 104.008 193.147 93.0982 196.056 93.0982L188.783 87.2795L193.147 61.823L191.692 45.8218Z" fill="#3F3D56"/>
<path d="M68.2615 120.301H20.5377V120.982H68.2615V120.301Z" fill="#F2F2F2"/>
<path d="M34.1731 114.165H33.4913V120.471H34.1731V114.165Z" fill="#F2F2F2"/>
<path d="M54.967 114.165H54.2853V120.471H54.967V114.165Z" fill="#F2F2F2"/>
<path d="M84.9648 19.3989H37.2411V20.0807H84.9648V19.3989Z" fill="#F2F2F2"/>
<path d="M72.0112 19.9102H71.3295V26.2165H72.0112V19.9102Z" fill="#F2F2F2"/>
<path d="M51.2173 19.9102H50.5355V26.2165H51.2173V19.9102Z" fill="#F2F2F2"/>
<path d="M133.029 86.553H85.3057V87.2347H133.029V86.553Z" fill="#F2F2F2"/>
<path d="M120.076 87.0645H119.394V93.3708H120.076V87.0645Z" fill="#F2F2F2"/>
<path d="M99.2819 87.0645H98.6002V93.3708H99.2819V87.0645Z" fill="#F2F2F2"/>
<path d="M51.899 86.2122H4.17529V86.8939H51.899V86.2122Z" fill="#F2F2F2"/>
<path d="M38.9455 86.7234H38.2637V93.0297H38.9455V86.7234Z" fill="#F2F2F2"/>
<path d="M18.1516 86.7234H17.4698V93.0297H18.1516V86.7234Z" fill="#F2F2F2"/>
</g>
<path d="M2.03786 62.8381V50.3216H2.69199C2.91003 50.3216 3.03583 50.4265 3.06937 50.6361L3.18258 52.523C3.75285 51.8018 4.41536 51.2232 5.17013 50.7871C5.93328 50.3426 6.78029 50.1204 7.71116 50.1204C8.39884 50.1204 9.00265 50.2294 9.5226 50.4474C10.0509 50.6655 10.487 50.98 10.8309 51.3909C11.1747 51.8018 11.4347 52.2966 11.6108 52.8753C11.7869 53.4539 11.8749 54.108 11.8749 54.8376V62.8381H10.6799V54.8376C10.6799 53.6636 10.4115 52.7453 9.87482 52.0828C9.3381 51.4119 8.51624 51.0764 7.40926 51.0764C6.58741 51.0764 5.82426 51.2903 5.11981 51.718C4.41536 52.1373 3.7864 52.7159 3.2329 53.4539V62.8381H2.03786ZM21.4231 50.1204C22.3204 50.1204 23.1213 50.2755 23.8257 50.5858C24.5386 50.8877 25.1382 51.3196 25.6246 51.8815C26.111 52.4434 26.48 53.1227 26.7316 53.9193C26.9916 54.7077 27.1215 55.5924 27.1215 56.5736C27.1215 57.5548 26.9916 58.4395 26.7316 59.2279C26.48 60.0162 26.111 60.6913 25.6246 61.2531C25.1382 61.815 24.5386 62.2469 23.8257 62.5488C23.1213 62.8507 22.3204 63.0017 21.4231 63.0017C20.5258 63.0017 19.7207 62.8507 19.0078 62.5488C18.3034 62.2469 17.7038 61.815 17.209 61.2531C16.7226 60.6913 16.3494 60.0162 16.0894 59.2279C15.8378 58.4395 15.712 57.5548 15.712 56.5736C15.712 55.5924 15.8378 54.7077 16.0894 53.9193C16.3494 53.1227 16.7226 52.4434 17.209 51.8815C17.7038 51.3196 18.3034 50.8877 19.0078 50.5858C19.7207 50.2755 20.5258 50.1204 21.4231 50.1204ZM21.4231 62.0582C22.1695 62.0582 22.8194 61.9324 23.3729 61.6808C23.9348 61.4209 24.4002 61.0519 24.7692 60.5738C25.1466 60.0958 25.4275 59.5214 25.612 58.8505C25.7965 58.1712 25.8888 57.4122 25.8888 56.5736C25.8888 55.7434 25.7965 54.9886 25.612 54.3093C25.4275 53.63 25.1466 53.0514 24.7692 52.5734C24.4002 52.087 23.9348 51.7138 23.3729 51.4538C22.8194 51.1938 22.1695 51.0638 21.4231 51.0638C20.6767 51.0638 20.0226 51.1938 19.4607 51.4538C18.9072 51.7138 18.4418 52.087 18.0644 52.5734C17.6954 53.0514 17.4145 53.63 17.2216 54.3093C17.0371 54.9886 16.9448 55.7434 16.9448 56.5736C16.9448 57.4122 17.0371 58.1712 17.2216 58.8505C17.4145 59.5214 17.6954 60.0958 18.0644 60.5738C18.4418 61.0519 18.9072 61.4209 19.4607 61.6808C20.0226 61.9324 20.6767 62.0582 21.4231 62.0582ZM37.1442 62.8381V50.3216H37.7731C37.9157 50.3216 38.0163 50.351 38.075 50.4097C38.1421 50.4684 38.1799 50.569 38.1883 50.7116L38.2889 53.3533C38.6914 52.3385 39.2282 51.546 39.8991 50.9758C40.57 50.3971 41.396 50.1078 42.3772 50.1078C42.7546 50.1078 43.1026 50.1497 43.4213 50.2336C43.74 50.3091 44.0419 50.4223 44.327 50.5732L44.1635 51.4035C44.1383 51.5377 44.0544 51.6047 43.9119 51.6047C43.8616 51.6047 43.7903 51.588 43.698 51.5544C43.6058 51.5209 43.4884 51.4831 43.3458 51.4412C43.2116 51.3993 43.0439 51.3615 42.8426 51.328C42.6414 51.2945 42.4107 51.2777 42.1508 51.2777C41.2031 51.2777 40.4232 51.5712 39.811 52.1582C39.2072 52.7453 38.7166 53.5923 38.3392 54.6993V62.8381H37.1442ZM52.8674 50.1204C53.5719 50.1204 54.2218 50.242 54.8172 50.4852C55.421 50.7284 55.941 51.0848 56.3771 51.5544C56.8215 52.0157 57.1654 52.5859 57.4086 53.2652C57.6602 53.9445 57.786 54.7244 57.786 55.605C57.786 55.7895 57.7566 55.9153 57.6979 55.9824C57.6476 56.0495 57.5637 56.083 57.4463 56.083H48.4017V56.322C48.4017 57.2613 48.5108 58.0873 48.7288 58.8002C48.9468 59.513 49.2571 60.1126 49.6597 60.599C50.0622 61.077 50.5486 61.4376 51.1189 61.6808C51.6892 61.924 52.3265 62.0456 53.031 62.0456C53.6599 62.0456 54.205 61.9785 54.6663 61.8444C55.1275 61.7018 55.5133 61.5467 55.8236 61.3789C56.1423 61.2028 56.3938 61.0477 56.5783 60.9135C56.7628 60.7709 56.897 60.6996 56.9809 60.6996C57.0899 60.6996 57.1738 60.7416 57.2325 60.8254L57.5595 61.228C57.3583 61.4796 57.0899 61.7144 56.7545 61.9324C56.4274 62.1505 56.0584 62.3392 55.6475 62.4985C55.2449 62.6494 54.8088 62.771 54.3392 62.8633C53.878 62.9555 53.4125 63.0017 52.9429 63.0017C52.0875 63.0017 51.3076 62.8549 50.6031 62.5614C49.8987 62.2595 49.2949 61.8234 48.7917 61.2531C48.2885 60.6829 47.8986 59.9868 47.6218 59.165C47.3535 58.3347 47.2193 57.3871 47.2193 56.322C47.2193 55.4247 47.3451 54.5986 47.5967 53.8439C47.8566 53.0807 48.2256 52.4266 48.7036 51.8815C49.19 51.328 49.7813 50.8961 50.4773 50.5858C51.1818 50.2755 51.9785 50.1204 52.8674 50.1204ZM52.88 51.0135C52.2343 51.0135 51.6556 51.1141 51.144 51.3154C50.6325 51.5167 50.188 51.806 49.8106 52.1834C49.4416 52.5608 49.1397 53.0136 48.9049 53.542C48.6785 54.0703 48.5275 54.6615 48.4521 55.3157H56.7041C56.7041 54.6448 56.6119 54.0451 56.4274 53.5168C56.2429 52.9801 55.9829 52.5272 55.6475 52.1582C55.312 51.7892 54.9095 51.5083 54.4398 51.3154C53.9702 51.1141 53.4503 51.0135 52.88 51.0135ZM71.5413 50.3216V67.2661H70.3337V60.6116C69.7802 61.3496 69.1345 61.9324 68.3965 62.3601C67.6669 62.7878 66.8492 63.0017 65.9435 63.0017C64.4088 63.0017 63.2096 62.4691 62.3458 61.4041C61.4904 60.339 61.0627 58.7414 61.0627 56.6113C61.0627 55.6972 61.1801 54.846 61.4149 54.0577C61.6581 53.261 62.0103 52.5734 62.4716 51.9947C62.9412 51.4077 63.5115 50.9464 64.1824 50.611C64.8617 50.2755 65.6416 50.1078 66.5221 50.1078C67.3859 50.1078 68.1323 50.2713 68.7613 50.5984C69.3986 50.9255 69.9437 51.4077 70.3966 52.045L70.5098 50.6361C70.5182 50.4265 70.6398 50.3216 70.8746 50.3216H71.5413ZM66.2831 62.0331C67.1134 62.0331 67.8639 61.8192 68.5349 61.3915C69.2058 60.9638 69.8054 60.3684 70.3337 59.6052V52.9885C69.8808 52.3008 69.3567 51.806 68.7613 51.5041C68.1659 51.2022 67.495 51.0512 66.7486 51.0512C66.0106 51.0512 65.3648 51.1854 64.8114 51.4538C64.2579 51.7222 63.7924 52.1037 63.415 52.5985C63.046 53.0849 62.7651 53.672 62.5722 54.3596C62.3877 55.0389 62.2955 55.7895 62.2955 56.6113C62.2955 58.4731 62.6393 59.8442 63.327 60.7248C64.0147 61.597 65 62.0331 66.2831 62.0331ZM77.6398 50.3216V58.3221C77.6398 59.4962 77.9081 60.4187 78.4448 61.0896C78.9816 61.7521 79.7992 62.0834 80.8978 62.0834C81.7113 62.0834 82.4703 61.8779 83.1747 61.467C83.8791 61.0477 84.5123 60.469 85.0742 59.731V50.3216H86.2818V62.8381H85.6151C85.3803 62.8381 85.2587 62.7291 85.2503 62.5111L85.1371 60.6493C84.5584 61.3705 83.8875 61.9492 83.1244 62.3853C82.3696 62.8214 81.5268 63.0394 80.5959 63.0394C79.8999 63.0394 79.2919 62.9304 78.7719 62.7123C78.252 62.4943 77.8201 62.1798 77.4762 61.7689C77.1324 61.358 76.8724 60.8632 76.6963 60.2845C76.5202 59.7059 76.4321 59.0517 76.4321 58.3221V50.3216H77.6398ZM96.0815 50.1204C96.786 50.1204 97.4359 50.242 98.0314 50.4852C98.6352 50.7284 99.1551 51.0848 99.5912 51.5544C100.036 52.0157 100.38 52.5859 100.623 53.2652C100.874 53.9445 101 54.7244 101 55.605C101 55.7895 100.971 55.9153 100.912 55.9824C100.862 56.0495 100.778 56.083 100.66 56.083H91.6159V56.322C91.6159 57.2613 91.7249 58.0873 91.9429 58.8002C92.161 59.513 92.4713 60.1126 92.8738 60.599C93.2763 61.077 93.7627 61.4376 94.333 61.6808C94.9033 61.924 95.5406 62.0456 96.2451 62.0456C96.874 62.0456 97.4192 61.9785 97.8804 61.8444C98.3416 61.7018 98.7274 61.5467 99.0377 61.3789C99.3564 61.2028 99.608 61.0477 99.7925 60.9135C99.977 60.7709 100.111 60.6996 100.195 60.6996C100.304 60.6996 100.388 60.7416 100.447 60.8254L100.774 61.228C100.572 61.4796 100.304 61.7144 99.9686 61.9324C99.6415 62.1505 99.2725 62.3392 98.8616 62.4985C98.4591 62.6494 98.023 62.771 97.5533 62.8633C97.0921 62.9555 96.6267 63.0017 96.157 63.0017C95.3016 63.0017 94.5217 62.8549 93.8173 62.5614C93.1128 62.2595 92.509 61.8234 92.0058 61.2531C91.5026 60.6829 91.1127 59.9868 90.8359 59.165C90.5676 58.3347 90.4334 57.3871 90.4334 56.322C90.4334 55.4247 90.5592 54.5986 90.8108 53.8439C91.0708 53.0807 91.4398 52.4266 91.9178 51.8815C92.4042 51.328 92.9954 50.8961 93.6915 50.5858C94.3959 50.2755 95.1926 50.1204 96.0815 50.1204ZM96.0941 51.0135C95.4484 51.0135 94.8697 51.1141 94.3582 51.3154C93.8466 51.5167 93.4021 51.806 93.0248 52.1834C92.6558 52.5608 92.3539 53.0136 92.119 53.542C91.8926 54.0703 91.7417 54.6615 91.6662 55.3157H99.9183C99.9183 54.6448 99.826 54.0451 99.6415 53.5168C99.457 52.9801 99.197 52.5272 98.8616 52.1582C98.5261 51.7892 98.1236 51.5083 97.654 51.3154C97.1843 51.1141 96.6644 51.0135 96.0941 51.0135ZM112.114 51.8689C112.055 51.9863 111.963 52.045 111.837 52.045C111.745 52.045 111.623 51.9947 111.472 51.8941C111.33 51.785 111.137 51.6676 110.894 51.5418C110.659 51.4077 110.365 51.2903 110.013 51.1896C109.669 51.0806 109.246 51.0261 108.743 51.0261C108.29 51.0261 107.875 51.0932 107.497 51.2274C107.128 51.3532 106.809 51.5251 106.541 51.7431C106.281 51.9612 106.076 52.2169 105.925 52.5105C105.782 52.7956 105.711 53.0975 105.711 53.4162C105.711 53.8103 105.812 54.1374 106.013 54.3974C106.214 54.6573 106.478 54.8796 106.805 55.0641C107.132 55.2486 107.501 55.4079 107.912 55.5421C108.332 55.6763 108.759 55.8105 109.195 55.9446C109.631 56.0788 110.055 56.2298 110.466 56.3975C110.885 56.5568 111.258 56.7581 111.585 57.0013C111.913 57.2445 112.177 57.5422 112.378 57.8944C112.579 58.2467 112.68 58.6744 112.68 59.1775C112.68 59.7226 112.579 60.23 112.378 60.6996C112.185 61.1693 111.9 61.576 111.523 61.9198C111.154 62.2637 110.696 62.5362 110.151 62.7375C109.606 62.9388 108.986 63.0394 108.29 63.0394C107.409 63.0394 106.65 62.901 106.013 62.6243C105.375 62.3392 104.805 61.9702 104.302 61.5173L104.591 61.0896C104.633 61.0225 104.679 60.9722 104.73 60.9386C104.78 60.9051 104.851 60.8883 104.944 60.8883C105.053 60.8883 105.187 60.9554 105.346 61.0896C105.505 61.2238 105.711 61.3705 105.962 61.5299C106.222 61.6808 106.541 61.8234 106.918 61.9576C107.304 62.0918 107.778 62.1588 108.34 62.1588C108.868 62.1588 109.334 62.0876 109.736 61.945C110.139 61.794 110.474 61.5928 110.743 61.3412C111.011 61.0896 111.212 60.7961 111.346 60.4606C111.489 60.1168 111.56 59.7562 111.56 59.3788C111.56 58.9595 111.46 58.6115 111.258 58.3347C111.057 58.058 110.793 57.8232 110.466 57.6303C110.139 57.4374 109.766 57.2739 109.346 57.1397C108.935 57.0055 108.508 56.8713 108.063 56.7371C107.627 56.603 107.199 56.4562 106.78 56.2969C106.369 56.1375 106 55.9362 105.673 55.693C105.346 55.4498 105.082 55.1563 104.881 54.8125C104.679 54.4603 104.579 54.0242 104.579 53.5042C104.579 53.0598 104.675 52.6321 104.868 52.2211C105.061 51.8102 105.333 51.4496 105.686 51.1393C106.046 50.829 106.482 50.5816 106.994 50.3971C107.506 50.2126 108.08 50.1204 108.717 50.1204C109.48 50.1204 110.156 50.2294 110.743 50.4474C111.338 50.6655 111.883 51.0009 112.378 51.4538L112.114 51.8689ZM120.459 63.0394C119.612 63.0394 118.949 62.8046 118.471 62.335C118.001 61.8653 117.767 61.1399 117.767 60.1587V51.6047H115.968C115.876 51.6047 115.8 51.5796 115.741 51.5293C115.683 51.4789 115.653 51.4077 115.653 51.3154V50.85L117.792 50.699L118.094 46.2208C118.102 46.1453 118.131 46.0782 118.182 46.0195C118.24 45.9608 118.316 45.9314 118.408 45.9314H118.974V50.7116H122.912V51.6047H118.974V60.0958C118.974 60.4397 119.016 60.7374 119.1 60.989C119.192 61.2322 119.314 61.4334 119.465 61.5928C119.624 61.7521 119.809 61.8695 120.018 61.945C120.228 62.0205 120.454 62.0582 120.698 62.0582C121 62.0582 121.26 62.0163 121.478 61.9324C121.696 61.8402 121.884 61.7437 122.044 61.6431C122.203 61.5341 122.333 61.4376 122.434 61.3538C122.534 61.2615 122.614 61.2154 122.673 61.2154C122.74 61.2154 122.807 61.2573 122.874 61.3412L123.201 61.8695C122.882 62.2217 122.476 62.5069 121.981 62.7249C121.494 62.9346 120.987 63.0394 120.459 63.0394ZM133.905 51.8689C133.846 51.9863 133.754 52.045 133.628 52.045C133.536 52.045 133.414 51.9947 133.263 51.8941C133.12 51.785 132.928 51.6676 132.684 51.5418C132.45 51.4077 132.156 51.2903 131.804 51.1896C131.46 51.0806 131.037 51.0261 130.533 51.0261C130.08 51.0261 129.665 51.0932 129.288 51.2274C128.919 51.3532 128.6 51.5251 128.332 51.7431C128.072 51.9612 127.867 52.2169 127.716 52.5105C127.573 52.7956 127.502 53.0975 127.502 53.4162C127.502 53.8103 127.602 54.1374 127.804 54.3974C128.005 54.6573 128.269 54.8796 128.596 55.0641C128.923 55.2486 129.292 55.4079 129.703 55.5421C130.122 55.6763 130.55 55.8105 130.986 55.9446C131.422 56.0788 131.846 56.2298 132.257 56.3975C132.676 56.5568 133.049 56.7581 133.376 57.0013C133.703 57.2445 133.968 57.5422 134.169 57.8944C134.37 58.2467 134.471 58.6744 134.471 59.1775C134.471 59.7226 134.37 60.23 134.169 60.6996C133.976 61.1693 133.691 61.576 133.313 61.9198C132.944 62.2637 132.487 62.5362 131.942 62.7375C131.397 62.9388 130.777 63.0394 130.08 63.0394C129.2 63.0394 128.441 62.901 127.804 62.6243C127.166 62.3392 126.596 61.9702 126.093 61.5173L126.382 61.0896C126.424 61.0225 126.47 60.9722 126.521 60.9386C126.571 60.9051 126.642 60.8883 126.734 60.8883C126.843 60.8883 126.978 60.9554 127.137 61.0896C127.296 61.2238 127.502 61.3705 127.753 61.5299C128.013 61.6808 128.332 61.8234 128.709 61.9576C129.095 62.0918 129.569 62.1588 130.131 62.1588C130.659 62.1588 131.125 62.0876 131.527 61.945C131.93 61.794 132.265 61.5928 132.533 61.3412C132.802 61.0896 133.003 60.7961 133.137 60.4606C133.28 60.1168 133.351 59.7562 133.351 59.3788C133.351 58.9595 133.25 58.6115 133.049 58.3347C132.848 58.058 132.584 57.8232 132.257 57.6303C131.93 57.4374 131.556 57.2739 131.137 57.1397C130.726 57.0055 130.299 56.8713 129.854 56.7371C129.418 56.603 128.99 56.4562 128.571 56.2969C128.16 56.1375 127.791 55.9362 127.464 55.693C127.137 55.4498 126.873 55.1563 126.671 54.8125C126.47 54.4603 126.37 54.0242 126.37 53.5042C126.37 53.0598 126.466 52.6321 126.659 52.2211C126.852 51.8102 127.124 51.4496 127.477 51.1393C127.837 50.829 128.273 50.5816 128.785 50.3971C129.296 50.2126 129.871 50.1204 130.508 50.1204C131.271 50.1204 131.946 50.2294 132.533 50.4474C133.129 50.6655 133.674 51.0009 134.169 51.4538L133.905 51.8689Z" fill="#F2F2F2"/>
<defs>
<clipPath id="clip0_246_763">
<rect width="305.432" height="254.971" fill="white"/>
</clipPath>
</defs>
</svg>
